<?xml version="1.0" encoding="UTF-8"?>
<svg id="_レイヤー_1" data-name="レイヤー_1" xmlns="http://www.w3.org/2000/svg" xmlns:xlink="http://www.w3.org/1999/xlink" version="1.1" viewBox="0 0 180 180">
  <!-- Generator: Adobe Illustrator 30.3.0, SVG Export Plug-In . SVG Version: 2.1.3 Build 182)  -->
  <defs>
    <style>
      .st0 {
        stroke: #7a997a;
        stroke-miterlimit: 10;
        stroke-width: .78px;
      }

      .st0, .st1 {
        fill: none;
      }

      .st2 {
        fill: #5b493d;
      }

      .st3 {
        fill: #7a997a;
      }

      .st4 {
        clip-path: url(#clippath-1);
      }

      .st5 {
        clip-path: url(#clippath-3);
      }

      .st6 {
        clip-path: url(#clippath-4);
      }

      .st7 {
        clip-path: url(#clippath-2);
      }

      .st8 {
        clip-path: url(#clippath-7);
      }

      .st9 {
        clip-path: url(#clippath-6);
      }

      .st10 {
        clip-path: url(#clippath-5);
      }

      .st11 {
        fill: url(#_名称未設定グラデーション_114);
      }

      .st12 {
        fill: url(#_名称未設定グラデーション_113);
      }

      .st13 {
        fill: url(#_名称未設定グラデーション_112);
      }

      .st14 {
        fill: url(#_名称未設定グラデーション_111);
      }

      .st15 {
        clip-path: url(#clippath);
      }

      .st16 {
        fill: url(#_名称未設定グラデーション_11);
      }
    </style>
    <clipPath id="clippath">
      <rect class="st1" x="-52.89" y="-30.49" width="1067.35" height="252.04"/>
    </clipPath>
    <clipPath id="clippath-1">
      <rect class="st1" x="-1613.34" y="-428.21" width="2678.74" height="1894.25"/>
    </clipPath>
    <clipPath id="clippath-2">
      <path class="st1" d="M91.91,110.25s-.84,6.46-4.2,10.36c-3.36,3.9-9.63,10.3-12.22,11.9,11.66-2.88,14.09-5.5,17.13-7.99,3.04-2.5,7.18-9.15,7.5-14.27.32-5.12-.52-11.51-3.23-14.39l-4.97,14.39Z"/>
    </clipPath>
    <linearGradient id="_名称未設定グラデーション_11" data-name="名称未設定グラデーション 11" x1="-492.1" y1="500.93" x2="-489.85" y2="500.93" gradientTransform="translate(-8072.19 8112.26) rotate(90) scale(16.29 -16.29)" gradientUnits="userSpaceOnUse">
      <stop offset="0" stop-color="#b0cc6b"/>
      <stop offset="1" stop-color="#7a997a"/>
    </linearGradient>
    <clipPath id="clippath-3">
      <path class="st1" d="M84.8,108.13c-2.59-1.21-2.84-5.76-2.13-7.68.71-1.92,2.52-3.84,5.43-3.13,2.91.7,2.91,4.86,2.78,6.52-.04.55-.09,1.27-.12,1.98-1.14,1.37-2.88,2.6-4.58,2.6-.47,0-.93-.09-1.38-.3M78.26,94.16c-2.53,2.99-4.8,8.09-2.61,14.02,2.03,5.49,9.22,8.01,12.45,4.56,1.2-1.28,2-2.75,2.53-4.09,0,.04,0,.06,0,.06l.05-.19c.49-1.26.74-2.39.86-3.14l2.25-8.21s-.19-4.01-3.62-5.8c-1.05-.55-2.31-.81-3.64-.81-3.01,0-6.35,1.33-8.27,3.59"/>
    </clipPath>
    <linearGradient id="_名称未設定グラデーション_111" data-name="名称未設定グラデーション 11" x1="-484.96" y1="534.47" x2="-482.71" y2="534.47" gradientTransform="translate(-4005.52 -4414.45) rotate(-180) scale(8.45 -8.45)" xlink:href="#_名称未設定グラデーション_11"/>
    <clipPath id="clippath-4">
      <path class="st1" d="M89.39,82.55c.97,1.47,2.01,13.24,1.94,16.76-.05,2.53.45,7.68-4.97,10.43-3.73,1.89-7.54.98-10.79-1.78,0,0,2.11,6.79,9.69,7.15,7.68.36,13.18-5.95,13.44-15.48.26-9.53,0-18.16,0-18.16l-9.31,1.09Z"/>
    </clipPath>
    <linearGradient id="_名称未設定グラデーション_112" data-name="名称未設定グラデーション 11" x1="-520.56" y1="492.09" x2="-518.31" y2="492.09" gradientTransform="translate(5453.34 5182.13) scale(10.33 -10.33)" xlink:href="#_名称未設定グラデーション_11"/>
    <clipPath id="clippath-5">
      <path class="st1" d="M97.73,76.66c-8.73.9-24.69.77-33.55,4.8-8.85,4.03-15.04,9.9-17.3,13.16,3.81-2.31,17.71-7.75,29.02-8.78,11.31-1.02,15.88-.22,20.6-1.06,4.72-.83,11.18-1.47,17.97-6.65,4.28-3.26,9.95-9.08,10.08-12.35-8.79,6.27-18.1,9.98-26.82,10.87"/>
    </clipPath>
    <linearGradient id="_名称未設定グラデーション_113" data-name="名称未設定グラデーション 11" x1="-509.42" y1="505.64" x2="-507.17" y2="505.64" gradientTransform="translate(17631.65 17534.47) scale(34.52 -34.52)" xlink:href="#_名称未設定グラデーション_11"/>
    <clipPath id="clippath-6">
      <path class="st1" d="M87.19,66.59c0,3.55,2.91,6.43,6.5,6.43s6.41-2.79,6.5-6.27v-.32c-.09-3.48-2.96-6.27-6.5-6.27s-6.5,2.88-6.5,6.43"/>
    </clipPath>
    <linearGradient id="_名称未設定グラデーション_114" data-name="名称未設定グラデーション 11" x1="-532.5" y1="480.25" x2="-530.25" y2="480.25" gradientTransform="translate(3162.6 2840.25) scale(5.78 -5.78)" xlink:href="#_名称未設定グラデーション_11"/>
    <clipPath id="clippath-7">
      <rect class="st1" x="-1613.34" y="-428.21" width="2678.74" height="1894.25"/>
    </clipPath>
  </defs>
  <g class="st15">
    <g class="st4">
      <circle class="st0" cx="90.05" cy="91.7" r="43.94"/>
      <circle class="st0" cx="90.05" cy="91.7" r="68.95"/>
    </g>
    <g class="st7">
      <rect class="st16" x="75.49" y="95.85" width="24.95" height="36.65"/>
    </g>
    <g class="st5">
      <rect class="st14" x="73.46" y="90.57" width="20.33" height="25.62"/>
    </g>
    <g class="st6">
      <rect class="st13" x="75.57" y="81.46" width="23.39" height="34.01"/>
    </g>
    <g class="st10">
      <rect class="st12" x="46.88" y="65.79" width="77.67" height="28.83"/>
    </g>
    <g class="st9">
      <rect class="st11" x="87.19" y="60.16" width="12.99" height="12.86"/>
    </g>
    <g class="st8">
      <path class="st3" d="M40.37,104.26c.1.41.2.79.27,1.12l.51,2.49c.14.79-.28,1.27-.77,1.37-.47.09-.99-.16-1.13-.84l-.02-.12c-.16-1.18-.22-1.58-.42-2.62-.07-.33-.14-.7-.24-1.08-.49.12-.97.23-1.41.32-.22.05-.52.14-.87.23-.55.53-1.23.84-1.96.99-2.29.47-6.01-.83-6.32-2.35-.12-.56.16-1.11.64-1.21.31-.07.72.06,1.19.5.64.6,1.51,1.04,2.41,1.27-.17-.26-.28-.55-.34-.83-.29-1.4.84-2.55,2.14-2.81,1.88-.38,2.73,1.24,2.95,2.27l.03.13,1.07-.25c-.41-1.32-.87-2.61-1.17-3.42-.43-1.18-.79-1.85-.98-2.33-.03-.06-.05-.15-.06-.21-.12-.56.26-1.01.74-1.11.43-.09.94.12,1.2.78.29.74,1.48,4.06,2.04,5.88l.17-.02.18-.04c.85-.18.89-.29,1.39-.39.68-.14,1.08.26,1.18.74.05.27.13,1.06-.83,1.26-.42.09-1.08.17-1.48.22l-.1.02ZM34.77,104.09l.08-.02c.62-.45.53-.87.51-.99-.12-.58-.56-.89-1.08-.78-.58.12-.83.62-.73,1.08.18.85,1.07.73,1.22.7"/>
      <path class="st3" d="M35.6,121.46c-1.53-2.89-1.47-5.63-.45-6.17.49-.26,1.13-.1,1.4.39.12.22.16.53.04.92-.32,1.05-.07,2.19.52,3.3.51.96,1.26,1.9,2.09,2.79.1.12.18.23.23.34.31.58.05,1.14-.41,1.39-.4.21-.99.2-1.48-.29-.78-.78-1.44-1.69-1.94-2.65M44.08,119.03c-.05-.09-.1-.2-.13-.32-.23-.8-.57-1.62-.99-2.41-.36-.67-.79-1.35-1.26-1.94-.06-.08-.13-.16-.16-.24-.29-.56-.06-1.06.34-1.28.43-.23,1.1-.14,1.58.52.47.63.97,1.43,1.4,2.24,1.15,2.17,1.5,3.41.57,3.9-.45.24-1.03.12-1.35-.47"/>
      <path class="st3" d="M53.04,127.78c.88.42,1.67.95,2.26,1.58,1.21,1.31,1.46,3.12.28,4.21-1.5,1.4-4.18,1.06-5.91-.79-.22-.24-1.8-2.15-.91-2.97.38-.36,1.08-.43,1.46-.02.14.15.23.34.27.61.06.43.28.85.62,1.21.89.96,2.3,1.18,2.93.59.41-.38.49-1.06-.14-1.75-.83-.9-2.75-1.64-4.89-2.22-1.57,4.84-2.22,6.68-2.81,7.23-.51.47-1.15.4-1.5.03-.3-.32-.38-.86,0-1.46.75-1.16,1.62-3.57,2.52-6.32-1.44-.47-2.3-.92-2.55-1.2-.39-.42-.31-1.08.06-1.43.29-.27.72-.35,1.27-.02.61.36,1.21.63,1.83.87.55-1.72.96-2.31,1.12-2.46.41-.38,1.02-.3,1.36.06.23.25.32.65.11,1.12-.25.53-.53.98-.73,1.53l-.13.33c.87.29,1.77.56,2.61.89l-.09-.1c-.26-.27-.35-.65-.09-1.07.2-.36.25-.81.27-1.25.02-.16.07-.27.17-.37.27-.25.87-.18,1.24.21.52.56.47,2.05-.13,2.6-.22.21-.5.26-.76.22l.25.12Z"/>
      <path class="st3" d="M61.91,138.5c-2.01,1.84-4.09,3.27-6.16,4.23-.45.21-.88.16-1.19-.02-.49-.28-.72-.86-.45-1.33.13-.22.38-.43.77-.56,1.64-.54,3.4-1.59,5.13-3.08-.59-.2-1.21-.4-1.75-.71-.59-.34-.65-.88-.42-1.28.23-.4.74-.63,1.3-.39.47.21.91.48,1.47.74l.71.33c.52-.53,1.18-1.24,1.7-1.98.36-.48.91-.49,1.31-.27.43.25.69.75.4,1.25-.06.1-.66.88-1.58,1.83l.34.16c.1.04.17.08.25.12.87.5,1.83,1.66.54,3.89-2.76,4.81-5.6,3.32-6.07,3.05-.91-.52-1.29-1.29-.97-1.87.25-.43.81-.65,1.29-.37.06.03.13.09.19.15.17.16.33.29.49.38,1.37.78,2.8-1.13,3.49-2.34.47-.81.4-1.34-.1-1.62l-.12-.07-.58-.25ZM67.22,144.78c-.28-.16-.47-.47-.43-.89.1-1,.14-2.4-.59-3.58-.18-.28-.16-.54-.04-.75.2-.35.72-.54,1.18-.28.93.53,1.95,4.03,1.33,5.12-.3.53-.99.64-1.45.38"/>
      <path class="st3" d="M71.54,151.94c-.48-.1-.64-.49-.57-.86.07-.37.38-.67.86-.57l1.91.39.34-1.7c.11-.51.59-.67,1.02-.59.43.09.81.43.71.94l-.33,1.7,1.56.34.61-3.01-4.26-.85c-.5-.1-.68-.5-.61-.85.07-.35.39-.65.89-.54l10.04,2.05c.5.1.68.5.6.87-.07.33-.39.63-.89.53l-4.1-.85-.16.78,3.23.64c.5.1.68.5.61.83-.07.35-.39.63-.89.53l-3.22-.67-.18.9,5.04,1.01c.46.09.65.53.58.9-.07.35-.37.63-.87.53l-11.93-2.43ZM76.49,146.09c-.08.4-.52.52-.92.45-.4-.1-.75-.38-.67-.78v-.02s.21-.94.21-.94c-.99.59-2.48,1.31-3,1.2-.45-.09-.71-.58-.63-.99.05-.25.25-.48.63-.54.86-.14,1.86-.44,2.76-.86-.25-.05-.48-.11-.68-.16-1.22-.28-1.07-1.12-.92-1.85.11-.55.37-1.29,1.57-1.08l1.08.22.11-.52-2.29-.47c-.48-.1-.65-.46-.58-.79.06-.32.36-.6.83-.51h.02s2.28.52,2.28.52l.09-.45c.1-.5.55-.65.94-.57.4.08.75.4.65.89l-.09.45,2.29.41h.02c.5.11.67.47.6.79-.07.33-.4.61-.88.51l-2.28-.46-.11.52,1.03.21c.85.17,1.22.72,1.16,1.19-.02.2-.07.5-.12.77-.1.5-.32,1.22-1.65.98-.3-.06-.68-.12-1.07-.2l-.03.25v.02c.07,0,.13.01.2.02.2.06,1.85.61,1.68,1.43-.08.38-.47.7-.84.63-.13-.03-.26-.1-.37-.25-.25-.33-.5-.54-.88-.77l-.13.72h0ZM75.83,141.79l-.67-.13c-.38-.06-.42.04-.47.27-.08.38-.06.56.3.63l.65.13.18-.9ZM78.21,142.52c.01-.15-.07-.26-.32-.31l-.7-.14-.18.9c.28.06.54.09.69.12.3.04.41-.04.43-.17l.08-.4ZM85.74,143.17c-.4.7-.95,1.5-1.82,2.22.58.62,1.28,1.11,1.98,1.48.39.2.51.55.44.89-.09.45-.51.83-1.1.71-1.06-.22-2.46-2.05-2.59-2.23-1.01.56-2.88,1.16-3.4,1.06-.47-.09-.73-.58-.65-1,.06-.28.27-.53.71-.58,1.03-.12,1.86-.38,2.52-.72-.27-.52-.51-1.07-.66-1.62l-.02.03c-.23.21-.5.26-.74.21-.4-.08-.72-.46-.64-.86.04-.18.14-.35.35-.52.75-.61,1.48-1.48,2.11-2.63.2-.36.52-.45.84-.38.4.08.77.45.68.9-.03.15-.19.43-.63,1.03l3.46.69c.47.09.61.49.54.86-.07.35-.36.67-.83.57l-.56-.11ZM82.47,142.48c.09.61.28,1.18.56,1.69.47-.43.79-.91,1.02-1.37l-1.58-.32Z"/>
      <path class="st3" d="M94.35,146.87l-1.57.18c.12,3.28-.09,5.51-1.43,7.46-.22.32-.51.47-.78.5-.52.06-1.01-.28-1.06-.75-.02-.19.02-.4.17-.6,1.3-1.91,1.51-3.81,1.38-6.41l-1.31.17c-.54.06-.87-.31-.92-.73-.05-.4.19-.84.73-.9l1.37-.16-.07-.62c-.1-.9-.22-1.79-.32-2.48l-.83.1c-.54.06-.88-.33-.92-.73-.05-.42.19-.86.73-.92l6.62-.76c.54-.06.86.31.9.73.05.4-.18.86-.72.92l-.72.08.35,3.1,1.18-.13c.52-.06.84.32.88.72.05.42-.18.86-.7.92l-1.18.12.77,6.74c.06.51-.37.81-.83.86-.44.05-.92-.15-.98-.66l-.77-6.74ZM93.79,142.15l-1.42.16c.07.81.21,1.99.31,3.13l1.48-.17-.37-3.12ZM98.01,144.71c-.57.07-1.01-.36-1.07-.83-.03-.3.1-.63.47-.86,1.85-1.12,2.8-2.25,3.7-3.65.2-.31.46-.46.73-.49.52-.06,1.03.36,1.09.9.02.2-.02.41-.13.61-1.29,2.16-3.97,4.23-4.78,4.32M98.22,154.13c-.66.07-1.12-.35-1.17-.82-.04-.35.14-.72.63-.91,2.34-.9,4-2.49,5.14-4.76.2-.38.46-.57.73-.6.51-.06,1.04.39,1.1.97.02.18,0,.39-.1.59-1.98,4.05-5.86,5.47-6.34,5.53M98.43,149.2c-.57.07-1.04-.38-1.09-.85-.03-.3.1-.63.47-.84,1.85-1.05,2.97-2.41,3.98-4.16.2-.35.47-.52.74-.55.52-.06,1.07.37,1.13.91.14,1.25-3.95,5.34-5.23,5.49"/>
      <path class="st3" d="M119.61,146.62c.22.46-.11.89-.54,1.09-.43.2-.97.17-1.19-.3l-2.75-5.95c-.73-.2-1.48-.43-2.22-.74.65,3.44.48,7.03-1.13,10.07-.17.32-.39.52-.64.63-.52.25-1.12.06-1.32-.37-.12-.26-.1-.61.13-1,1.15-1.87,1.58-3.98,1.57-5.98-.5-.03-.92-.04-1.46.05-.42.07-.7-.12-.82-.38-.22-.46-.05-1.18.49-1.43.34-.16,1.1-.12,1.64-.09-.12-.86-.38-2.05-.64-2.61-.1-.22-.25-.29-.48-.19l-.05.02c-.09.05-.68.36-1.21.62.13,1.96,0,3.88-.27,5.35-.09.49-.36.81-.65.94-.46.22-1.01.04-1.21-.39-.08-.17-.11-.4-.04-.65.55-2.23.56-4.56.02-7.28-.12-.58.15-.97.52-1.14.43-.2,1.01-.1,1.24.41.02.03.06.12.21,1.05.56-.28,1.14-.57,1.32-.66.84-.36,1.72-.28,2.16.65.04.09.11.23.27.9.04-.04.09-.06.13-.08.12-.06.28-.08.47,0,.37.15.71.27,1.05.37l-1.85-3.87v-.02c-.24-.49.07-.92.5-1.12.43-.2.99-.16,1.21.31v.02s2.36,5.16,2.36,5.16c1.33.16,2.61.13,4.03.08.46-.02.77.2.91.51.22.48.06,1.13-.51,1.4-.52.24-2.49.06-3.55-.1l2.26,4.7v.02Z"/>
      <path class="st3" d="M130.85,138.81c.37.4.21.92-.13,1.24-.35.33-.88.46-1.25.06h-.01s-3.31-3.61-3.31-3.61c.47,2.8.2,3.15-.04,3.37-.37.35-1.02.36-1.36,0-.14-.15-.23-.39-.21-.69.09-1.19-.04-3.28-.5-4.93l-.22-.23-1.27,1.27-.02.02c-.42.4-.9.29-1.19-.02-.3-.32-.38-.83.05-1.24l1.28-1.21-.98-.99c-.06.08-.74.95-.93,1.14-.42.4-.94.28-1.25-.04-.27-.28-.35-.74,0-1.14,1.03-1.18,1.63-2.05,2.3-3.43.05-.12.11-.2.19-.27.36-.34.93-.27,1.24.05.4.42.3.88-.45,2.1l1.2,1.34,1.15-1.08c.42-.4.92-.29,1.22.04.28.3.37.79-.05,1.19h-.01s-1.19,1.1-1.19,1.1l.43.46.06-.06c.21-.2,2.39-.93,3.04-.24.35.37.36.99.02,1.31-.15.14-.38.22-.68.17-.38-.06-.89-.05-1.33,0,1.75,1.82,4.19,4.31,4.19,4.31h.01ZM127.1,128.7c-.66-.1-1.43-.08-1.89,0-.27.04-.46-.04-.59-.17-.28-.3-.24-.9.13-1.25.32-.3,2.43-.78,3.09-.09.36.38.36,1,.01,1.32-.17.16-.42.25-.75.2M135.45,134.56l-2.52-2.71-2,3.36c-.06.11-.13.19-.19.25-.38.36-.9.26-1.19-.05-.23-.25-.33-.67-.09-1.06l2.27-3.8-5.47-5.72c-.38-.41-.24-.92.11-1.24.34-.33.89-.44,1.26-.05l5.06,5.4.81-1.32c.05-.09.11-.15.17-.21.37-.35.91-.25,1.2.06.23.25.31.62.08,1l-1.05,1.76,2.92,3.04c.34.36.17.87-.18,1.19-.34.33-.84.47-1.18.11h-.01ZM129.47,131.4c-.68-.03-1.46.09-1.83.17-.32.06-.55-.02-.7-.18-.27-.28-.24-.82.15-1.2.31-.29,2.34-1.04,3.04-.3.35.37.36.97.02,1.28-.15.14-.38.24-.68.22"/>
      <path class="st3" d="M137.61,115.75c.33.18.69.4.85.5l.42.29,1.7-3.15c.25-.44.72-.47,1.07-.29.34.19.56.58.33.99l-.02.05c-.25.38-1,1.72-1.59,2.77,1.37-.14,2.68-.83,3.64-1.71.38-.33.81-.35,1.14-.17.42.23.66.75.37,1.27-.35.64-2.5,2-4.87,2.04,1.84,2.65.83,5.35.79,5.42-.24.45-.79.52-1.17.31-.31-.17-.51-.51-.4-.97.45-1.85,0-3.09-.71-3.97l-1.39,2.69-.02.03c-.24.45-.69.49-1.02.31-.36-.19-.59-.63-.33-1.09l1.64-2.96c-.24-.17-.91-.56-1.28-.76l-.73,1.34c.22.41.39.81.5,1.2.07.25.04.5-.07.7-.22.4-.73.63-1.07.44-.13-.07-.24-.19-.3-.4-.33-1.03-.66-1.6-1.37-2.45-.15-.18-.19-.39-.14-.6-.32.58-.6,1.14-.86,1.6-.42.81-.25,1.14.39,1.51,1.13.66,2.27,1.3,3.39,1.91,1.27.69,2.5,1.35,3.69,1.96.74.38,1.05.24,1.55-.64.52-.92,1.06-1.88,1.63-2.9.96-1.76,1.97-3.68,3.06-5.77l.02-.03c.27-.49.79-.53,1.2-.31.39.21.65.66.38,1.16-.97,1.87-1.89,3.61-2.82,5.31-.76,1.39-1.52,2.75-2.33,4.15-.74,1.28-1.74,1.56-2.92.98-1.14-.56-2.46-1.27-3.79-1.99-1.62-.89-3.29-1.84-4.72-2.66-.93-.53-1.19-1.62-.6-2.73.68-1.31,1.54-2.89,2.42-4.5.88-1.61,1.78-3.25,2.57-4.62.28-.52.79-.57,1.17-.37.37.2.61.66.32,1.18-1.16,2.08-2.47,4.44-3.52,6.36.25-.29.66-.43.97-.26.09.05.16.11.22.2l.09.11,2.36-4.32c.24-.45.71-.48,1.04-.3.34.19.55.59.3,1.04l-1.17,2.13Z"/>
      <path class="st3" d="M149.27,96.17c.03-.18.24-.97,1.09-.81,2.27.43,2.75,1.32,2.39,3.24-.25,1.33-.59,2.39-2.5,2.03-.55-.1-2.97-.58-4.09-.83l-.64,3.53c-.07.4-.36.61-.66.65l.45.09c1.29.3,2.26,1.4,2.03,2.58-.17.88-.68,1.03-.82,1.05,1.32.25,2.6.51,3.85.75.55.1.73.6.65,1.06-.09.47-.46.88-.99.78-3.02-.58-8.37-1.61-11.98-2.37-.98-.2-1.56-.7-1.35-1.87l.25-1.3c.17-.9.41-2.15,1.71-1.9.28.05.8.22,2.65,1.6.09.07.2.11.32.13.22.04.45.02.66-.11.66-.39,1.3-.58,2.16-.52-.34-.12-.59-.43-.5-.89l1.42-7.44c.1-.5.54-.67.95-.6.4.08.74.4.64.88v.02s-.43,2.13-.43,2.13c1.01.21,2.84.61,3.62.76.33.07.78.15.89-.4.16-.85-.03-1.04-.96-1.22l-.18-.04c-.53-.1-.69-.54-.61-.96M142.34,96.15c-.62-.12-.65-.04-1.13,2.5-.56,2.95-.56,3.01.08,3.13l.6.11c.55.11.73.61.65,1.04s-.43.82-.98.71l-.83-.16c-.7-.13-1.82-.36-1.54-2.07l.29-1.78-1.02-.2c-.6-.11-.81-.65-.72-1.14.09-.48.48-.91,1.08-.8l1.02.19c.13-.72.28-1.38.43-2.01.26-1.07.86-1.67,1.89-1.47l1.17.22c.53.14.72.66.64,1.11-.09.45-.44.83-.97.73l-.65-.12ZM145.5,106.86c.01-.07.04-.13.07-.19.03-.05.06-.11.07-.16.02-.08.11-.65-.99-.86-.73-.14-1.3-.06-1.97.26-.53.26-.94.34-1.33.27-.32-.06-.6-.2-.92-.44-.72-.5-1.6-1.01-1.74-1.04-.25-.05-.32.34-.36.56-.12.62-.08.85.36.93,2.03.42,4.6.91,7.18,1.4-.25-.15-.42-.43-.36-.72M143.3,101.17c-.1.54-.54.73-.92.65-.37-.07-.7-.41-.6-.94l.73-3.8c.09-.5.53-.68.89-.61.38.07.72.4.62.9l-.72,3.8ZM150.53,106.89c-.35-.07-.69-.38-.78-.91-.36-2.3-1.57-3.12-3.09-3.65-.5-.18-.65-.57-.58-.96.09-.48.54-.93,1.08-.83.05,0,.1.02.15.04,4.02,1.49,4.37,5,4.27,5.53-.11.6-.6.86-1.05.77"/>
      <path class="st3" d="M44.31,68.6l-5.22-3.44c.45,1.03.63,1.5.4,1.87-.18.28-.54.38-.81.21-.12-.07-.22-.2-.28-.39-.51-1.71-1.55-3.57-2.95-4.98-.25-.23-.22-.53-.08-.75.19-.31.6-.49.92-.29.25.16.97,1.11,1.5,1.95l7.23,4.71c.33.22.33.62.16.9-.17.27-.5.44-.84.22h-.01ZM40.71,62.49c.09.24.05.47-.06.65-.17.27-.48.4-.7.26-.06-.04-.11-.09-.15-.16-.12-.2-1.53-2.58-1.73-2.7-.08-.05-.16,0-.2.06l-.36.57c-.17.27-.48.27-.69.14-.22-.14-.36-.42-.2-.68.24-.4.49-.8.63-1.03.29-.46.76-.68,1.18-.42.2.12.33.31,1.69,2.36.17-.27.28-.47.3-.51.33-.53.84-.74,1.44-.37.3.19,2.08,1.65,3.03,3.11,1.04-.25,2.02-1.21,3.06-2.88.29-.47.59-.99.9-1.56.02-.02.02-.03.04-.06.2-.33.58-.35.85-.18.27.17.42.53.19.95-.27.48-.52.93-.78,1.35-1.17,1.87-2.35,3.05-3.72,3.38.36.83.62,1.96.42,2.27-.18.28-.62.4-.9.22-.14-.09-.24-.25-.24-.48-.02-.72-.19-1.36-.44-1.93-.46-.04-.94-.15-1.46-.36.02.1.06.17.08.26.05.18.02.34-.06.47-.16.25-.5.36-.76.2-.13-.08-.24-.24-.28-.49-.09-.61-.38-1.12-.64-1.45-.11-.16-.1-.36,0-.52.16-.25.45-.4.7-.25.06.04.17.15.18.18.17.14.35.25.51.35.36.23.7.39,1.04.49-.74-.92-1.82-1.71-2.13-1.91-.15-.1-.3-.01-.37.09l-.35.56ZM46.45,60.35l.6.37c.32.2.33.55.17.79-.15.23-.47.38-.78.18l-.59-.39-.82,1.3c-.18.29-.49.29-.7.16-.22-.14-.34-.41-.16-.7l.82-1.3-.61-.4-.55.88c-.18.29-.49.31-.7.18-.2-.12-.32-.41-.13-.7l.55-.88-.59-.37c-.2.31-.39.62-.58.89-.15.25-.45.24-.64.12-.2-.12-.32-.38-.16-.62h0c.2-.3.38-.59.57-.9l-.6-.37-.91,1.45c-.17.27-.48.27-.69.14-.22-.14-.34-.41-.18-.68l.9-1.44-.58-.37-.62.98h0c-.18.3-.48.32-.7.18-.22-.14-.34-.41-.16-.7.18-.28.39-.65.61-1l-.44-.26c-.32-.2-.33-.55-.18-.78.16-.25.47-.39.79-.19l.44.28.33-.53c.68-1.06,1.14-.92,2.14-.29l.23-.36c.18-.29.51-.3.75-.15.23.15.37.45.19.74l-.23.36c.17.12.33.22.48.33.59.44.53,1.03.14,1.67-.11.18-.22.38-.34.57l.6.36.81-1.3c.18-.28.48-.29.67-.16.21.13.34.4.16.69l-.81,1.3.62.39,1.09-1.75c.18-.28.48-.29.7-.15.21.13.34.41.17.69l-1.09,1.73ZM41.78,56.31c-.45-.28-.6-.31-.81,0l-.28.45.59.36.51-.81ZM42.14,57.66l.59.39c.1-.16.19-.32.27-.47.11-.2.1-.41-.11-.56-.08-.05-.16-.11-.25-.17l-.51.81Z"/>
      <path class="st3" d="M52.39,51.46c1.39.46,2.75.93,3.49,1.34.58.31.69.81.51,1.15-.18.34-.65.52-1.18.18-.72-.47-2.01-.98-3.36-1.44-.68-.24-1.37-.47-1.99-.67-.22.7-.49,1.37-.84,1.98-.46.79-1.76.24-1.17-.77.3-.51.54-1.05.75-1.63-.15-.05-.27-.11-.41-.15-.25-.09-.52-.19-.79-.3-.27-.11-.51-.22-.73-.36-.71-.46-.18-1.57.69-1.17.44.21.86.45,1.32.62.11.03.22.08.34.12.32-1,.6-2.02,1.04-2.92.64-1.32,1.52-2.39,2.75-2.63,1.37-.26,2.32.69,2.51,2.03.26,1.9-1.33,3.78-3.01,4.16-.42.09-.74-.22-.8-.58-.07-.36.11-.75.63-.83.98-.14,1.98-1.33,1.84-2.48-.07-.6-.47-1.01-1.08-.94-.63.08-1.22.74-1.75,1.86-.41.88-.66,1.81-.91,2.73.68.22,1.43.46,2.17.7M48.86,48.17c-.19-.12-.4-.17-.6-.2-.18-.03-.34-.04-.52-.05-.65-.03-.47-1.19.42-1.25.31-.02.91,0,1.37.27.76.45.11,1.7-.68,1.22"/>
      <path class="st3" d="M62.04,40.12c.98-.64,2.08-.46,2.86.88.49.84.95,2,1.05,2.94.15,1.48-.72,2.72-2.08,3.01-1.11.24-1.33-1.09-.49-1.31.79-.2,1.24-.59,1.19-1.49-.04-.75-.4-1.67-.75-2.32-.4-.74-.85-.96-1.38-.61-.18.11-.35.23-.53.36.42,2.21.5,4.31.28,6.18-.14,1.15-1.79,1.12-1.47-.2.34-1.39.34-3.19.02-5.12l-.13.1c-.47.38-.91.71-1.23.88-.83.45-1.41-.66-.67-1.15.36-.24.74-.43,1.16-.7l.58-.39c-.14-.61-.37-1.42-.67-2.14-.34-.84.94-1.44,1.28-.57.18.44.41,1.26.57,1.91l.38-.26ZM68.01,40.45c-.65-.51-1.7-1.14-2.87-1.16-.77,0-.73-1.21.26-1.18,1.28.05,2.62.45,3.42,1.15.74.64-.07,1.77-.81,1.19"/>
      <path class="st3" d="M74.19,42.37c-1.71-2.4-1.58-6.64-1.72-8.3-.09-1.03,1.29-1.05,1.33-.23.04,1.14-.02,4.5.6,5.67.08.17.13.11.15-.02.01-.07.09-.38.13-.48.26-.76,1.25-.31,1.07.3-.29.99-.36,1.66-.35,2.07,0,.38.27.76,0,1.14-.27.38-.78.44-1.2-.16M77.07,35c-.7.36-1.41-.73-.48-1.21,1.13-.58,2.53-.92,3.52-.92,1,0,1.04,1.33.08,1.35-1.02.03-2.05.23-3.12.78M77.57,40.56c-.7-.47-.11-1.62.74-1.15.88.49,2.45-.11,3.45-.57,1.04-.49,1.44.92.61,1.37-1.36.7-3.58,1.18-4.79.36"/>
      <path class="st3" d="M87.69,31.6c-.7-.9.66-1.62,1.2-.82.58.85,1.18,2.09,1.56,3.25.76-.51,1.55-.99,2.46-1.48.95-.51,1.65.83.57,1.35-1.42.69-2.86,1.47-3.97,2.38-1.39,1.14-1.45,2.17-.38,2.72.96.5,2.94.18,3.78-.11,1.17-.42,1.56,1.17.32,1.5-1.1.29-3.41.52-4.77-.19-1.97-1.04-1.85-3.28.42-5.03.14-.11.27-.22.41-.31-.34-1.1-.98-2.47-1.6-3.25"/>
      <path class="st3" d="M101.7,39.57c-.37,1.94,1.75,2.36,2.8,1.03.71-.9.54-1.88-.02-2.88-.52-.94.81-1.37,1.24-.55.77,1.46.84,2.83,0,4.07-1.57,2.33-5.98,1.76-5.24-1.86.08-.38.17-.78.3-1.19-.47-.16-.83-.33-1-.41-1.02-.55-.3-1.73.41-1.3.29.17.62.33.99.45.19-.58.4-1.16.61-1.75-.5-.19-.91-.38-1.07-.5-.94-.59-.05-1.69.59-1.22.27.19.58.36.91.48.05-.16.12-.33.17-.49.28-.83.43-1.33.62-1.96.29-.93,1.52-.41,1.33.38-.15.63-.4,1.11-.69,1.89-.05.16-.12.31-.17.47.12.02.24.01.35.01.92,0,.87,1.26.02,1.3-.29.02-.56-.02-.86-.06-.22.59-.43,1.15-.61,1.7.23.03.46.04.67.03.94-.03,1,1.23.14,1.32-.39.03-.83,0-1.25-.07-.12.38-.2.75-.27,1.09"/>
      <path class="st3" d="M109.94,43.84c.25-2.92,3.08-6.07,4.05-7.43.6-.84,1.66.04,1.16.68-.71.9-2.92,3.41-3.21,4.71-.04.18.02.17.13.08.06-.05.32-.23.41-.29.69-.41,1.15.57.62.92-.86.57-1.35,1.03-1.6,1.35-.25.29-.29.75-.74.87-.45.11-.88-.17-.82-.9M113.69,44.65c-.22-.81.96-1.31,1.31-.4.36.94,1.93,1.5,3,1.79,1.1.3.5,1.64-.42,1.43-1.49-.34-3.49-1.41-3.88-2.82M116.89,40.09c-.77-.17-.6-1.47.41-1.23,1.23.29,2.52.93,3.27,1.57.76.65-.07,1.69-.81,1.08-.79-.63-1.71-1.15-2.88-1.42"/>
      <path class="st3" d="M120.28,51.27c-.13-.12-.27-.26-.41-.39-.3-.29-.21-.67.02-.93.22-.25.56-.36.82-.12t.02.02c.23.22.47.43.68.63,2.43,2.17,4.52,3.08,6.91,1.94.25-.11.46-.06.61.08.27.24.35.71.1.98-.05.06-.12.11-.2.15-2.72,1.22-5.41.43-8.54-2.36M122.11,48.35c-.33-.29-.34-.76-.1-1.03.15-.16.4-.24.72-.12.86.32,2.06.43,3.02.23.2-.04.37.02.5.13.27.24.32.73.07,1-.08.09-.2.16-.35.19-1.39.23-3.42-.01-3.85-.4M128.99,49.31l-1.27,1.42-.54.63s0,.01-.02.02c-.48.54-1.6,1-2.77-.04-.48-.43-.91-.95-.51-1.4.21-.24.59-.33.85-.1.03.03.07.07.09.1.15.21.3.4.44.52.31.28.63.32,1.03-.14l1.71-1.91-3.54-3.16c-.3-.27-.25-.61-.05-.84.19-.22.53-.31.83-.04l1.2,1.07,1.45-1.62c.29-.32.67-.25.93-.02.25.22.37.61.08.93l-1.45,1.62,1.32,1.18,2.29-2.56c.3-.34.7-.29.95-.06.26.23.36.64.06.97l-.63.7,2.18,1.95c.28.25.21.59.02.81-.2.22-.54.33-.82.09l-2.18-1.95-.86.96,3.38,3.02c.27.24.21.58.02.79-.2.23-.53.32-.8.09l-3.4-3.03ZM129.81,54.35c-.04-.78-.43-1.98-.86-2.75-.15-.27-.12-.51.03-.68.2-.22.61-.27.9-.01.25.22,1.25,2.09,1.31,3.25.01.23-.07.4-.19.54-.26.29-.72.35-.99.11-.11-.1-.19-.24-.2-.46"/>
      <path class="st3" d="M133.25,57.97c.81-1.7,2.71-1.53,3.33-.31.03.08.06.14.1.22.28-.17.59-.34.88-.5-.53-.63-.69-1.12-.74-1.37-.17-.79,1.07-1.12,1.25-.25.07.34.27.67.57,1,.5-.32.77-.61,1.01-.8.83-.68,1.62.64.87,1.19-.18.13-.48.33-.78.5.13.07.27.15.4.2.78.33.26,1.55-.68,1.08-.28-.15-.63-.4-.95-.65-.38.22-.76.46-1.2.72-.17.09-.42.24-.67.39-.18.33-.51.61-1.04.74-.44.11-1.12.16-1.67.26-.66.12-1.22.39-1.2.99.02.68.87,1.93,1.69,2.57.88.68,1.66.38,2.59-.6.63-.67,1.66.31.89,1.09-1.4,1.42-2.74,1.78-4.32.54-.97-.76-2.07-2.4-2.12-3.61-.04-1.01.57-1.74,1.85-2.09-.21-.39-.24-.89-.03-1.31M135.28,58.88c.13-.07.24-.16.31-.26v-.02c.09-.14.11-.29.03-.47-.27-.56-.97-.46-1.29-.01-.2.28-.25,1.03.7.83.08-.02.17-.05.23-.07h.01ZM140.12,63.54c.21-.49.33-1.28-.04-1.88-.44-.72.65-1.38,1.14-.51.49.86.59,2.2.18,2.98-.22.41-.62.46-.93.32-.31-.14-.54-.49-.36-.91"/>
      <path class="st2" d="M228.92,74.09c1.91-.08,3.66-.15,5.19-.15h11.44c3.58.08,5.34,2.36,5.34,4.65,0,2.14-1.6,4.2-4.73,4.2h-.53c-5.34-.38-7.17-.46-11.9-.54-1.53,0-3.2,0-4.96.08.08,2.29.15,4.5.15,6.48,0,.99.15,2.44.23,4.04,1.83,2.9,2.59,6.18,2.59,9.53,0,10.52-9.07,25.7-16.09,25.7-2.59,0-4.73-1.68-4.73-3.89,0-1.45.91-3.13,3.28-4.81,3.2-2.29,5.95-5.72,7.78-9.46-1.3.54-2.67.76-3.97.76-6.41,0-10.45-6.03-10.45-11.97,0-8.62,7.93-10.91,12.66-10.91h.61l-.15-4.96c-6.18.61-12.28,1.45-16.09,2.06-5.57.84-8.85,1.83-11.13,2.21-.31.08-.69.08-.99.08-2.59,0-4.2-2.06-4.2-4.27,0-1.98,1.37-4.04,4.5-4.58,3.51-.61,19.22-2.82,27.76-3.66l.07-.76v-.84c0-3.89-.46-4.2-.46-6.48,0-3.13,2.14-4.5,4.35-4.5,1.22,0,4.81.38,4.81,4.8,0,1.91-.23,4.88-.38,6.71v.46ZM223.13,98.57v-.38c-1.45-3.13-3.35-3.13-3.89-3.13-2.67,0-4.42,1.68-4.42,4.04,0,2.67,1.98,4.2,4.12,4.2,3.89,0,4.19-4.05,4.19-4.73"/>
      <path class="st2" d="M288.3,122.9c-14.72,0-25.47-6.03-25.47-11.21,0-2.52,1.98-4.73,4.5-4.73,1.14,0,2.44.46,3.74,1.75,3.51,3.51,8.54,4.88,14.18,4.88,4.88,0,10.22-.99,15.48-2.44.69-.16,1.3-.23,1.83-.23,2.97,0,4.65,2.21,4.65,4.58,0,2.06-1.3,4.35-4.27,5.26-4.73,1.45-9.76,2.14-14.64,2.14M296.53,84.08c-.46,0-.99,0-1.53-.15-3.66-.76-7.63-1.14-11.67-1.14-3.43,0-7.02.3-10.37.91-.46.08-.92.15-1.3.15-2.82,0-4.35-1.98-4.35-4.04,0-2.21,1.75-4.65,5.41-5.18,3.51-.53,7.7-.84,11.82-.84,11.06,0,16.7,1.22,16.7,5.95,0,2.29-1.68,4.35-4.73,4.35"/>
      <path class="st2" d="M350.32,76.38c4.04-1.6,8.23-2.59,12.13-2.59,8.01,0,14.72,4.73,14.72,11.98,0,9.23-9.31,17.01-20.67,17.01-1.45,0-12.58-.69-12.58-6.1,0-2.37,1.91-4.88,4.42-4.88.92,0,1.83.31,2.82.99,1.6,1.14,3.66,1.68,5.87,1.68,5.87,0,10.91-3.96,10.91-7.85,0-2.52-1.98-4.88-6.18-4.88-5.49,0-13.8,4.05-22.27,9.31,11.14,19.98,15.18,27.76,15.18,31.35,0,3.13-2.21,5.03-4.5,5.03-1.98,0-3.97-1.37-4.81-4.5-1.53-6.03-6.79-16.25-13.04-27.61-5.95,3.28-10.07,4.73-11.74,4.73-2.59,0-4.5-2.29-4.5-4.57,0-1.75,1.07-3.43,3.81-4.27,3.05-.92,5.8-2.06,8.47-3.35-3.97-7.09-4.65-10.22-4.65-11.21,0-2.52,2.14-4.27,4.35-4.27,1.53,0,3.13.91,4.04,3.05.99,2.44,1.6,4.73,2.82,7.09l.69,1.45c3.58-1.98,7.24-4.12,10.91-5.87h-.61c-1.68,0-3.2-.84-3.81-2.97-.53-1.76-1.91-3.28-3.28-4.73-.46-.53-.68-1.07-.68-1.68,0-1.68,2.06-3.43,4.5-3.43,3.43,0,8.16,4.73,8.16,8.39,0,1.37-.69,2.44-1.6,3.2l1.15-.46Z"/>
      <path class="st2" d="M410.42,89.42c-3.74,11.67-8.62,21.89-14.57,30.28-1.3,1.83-3.05,2.59-4.65,2.59-2.52,0-4.73-1.76-4.73-4.19,0-1.15.54-2.52,1.76-3.89,5.19-5.8,9.69-13.8,13.12-23.49-2.74.53-5.64,1.14-8.39,1.14-3.05,0-4.5-1.98-4.5-4.04s1.45-4.12,4.19-4.43c2.29-.23,4.65-.15,7.4-.38l3.51-.31c.84-3.2,1.83-7.47,2.21-11.52.31-2.67,2.44-3.96,4.5-3.96,2.21,0,4.35,1.37,4.35,3.96,0,.53-.61,4.88-2.06,10.68l1.68-.16c.46-.07.84-.07,1.22-.07,4.5,0,10.83,2.36,10.83,13.96,0,24.94-14.42,25.47-16.86,25.47-4.73,0-7.93-2.14-7.93-5.11,0-2.21,1.68-4.35,4.2-4.35.3,0,.68.08,1.07.15.99.23,1.91.38,2.74.38,7.09,0,8.39-10.68,8.39-16.93,0-4.19-1.45-6.1-4.04-6.1h-.61l-2.82.3ZM445.2,102c-1.45,0-2.9-.76-3.66-2.52-1.83-4.12-4.81-9.69-10.3-12.66-1.3-.69-1.83-1.76-1.83-2.82,0-1.83,1.6-3.74,3.97-3.74,4.8,0,16.63,11.36,16.63,17.01,0,2.75-2.44,4.73-4.8,4.73"/>
      <path class="st2" d="M480.3,95.67c0,1.83-1.83,2.75-3.66,2.82-1.83-.08-3.66-.99-3.66-2.82v-.07l.08-4.35c-3.81,3.51-9.76,8.01-12.13,8.01-2.06,0-3.66-1.91-3.66-3.81,0-1.15.69-2.36,2.29-2.98,3.66-1.37,7.78-3.58,11.36-6.25-1.14,0-2.21-.08-3.13-.08-5.64-.15-5.72-3.96-5.72-7.32,0-2.52.46-6.03,5.95-6.18h4.96v-2.36h-10.52c-2.21,0-3.28-1.45-3.28-2.97s1.07-2.97,3.2-2.97h.08l10.52.23v-2.06c0-2.29,1.83-3.36,3.66-3.36s3.66,1.07,3.66,3.36v2.06l10.45-.23h.08c2.29,0,3.35,1.45,3.35,2.9,0,1.53-1.22,3.05-3.43,3.05h-10.45v2.36h4.73c3.89,0,6.03,2.06,6.18,4.19.07.92.15,2.29.15,3.51,0,2.29-.31,5.64-6.41,5.8-1.37,0-3.13.08-4.88.08l.08,1.14v.08c.3-.08.61-.08.92-.08.91.08,8.69.99,8.69,4.81,0,1.75-1.45,3.51-3.13,3.51-.61,0-1.22-.23-1.83-.76-1.37-1.22-2.67-1.91-4.57-2.59l.07,3.28v.07ZM463.75,125.88c-2.21,0-3.28-1.6-3.28-3.28s1.07-3.28,3.28-3.28h8.77v-7.78c0-2.36,1.98-3.51,3.97-3.51s3.96,1.15,3.96,3.51l.08,7.78,7.17.08v-13.8l-19.52.08c-2.29,0-3.43-1.6-3.43-3.2s1.14-3.2,3.43-3.2h46.06c2.29,0,3.43,1.6,3.43,3.28,0,1.52-1.15,3.13-3.43,3.13l-18.84-.08v3.58l14.8-.08c2.29,0,3.43,1.6,3.43,3.13s-1.14,3.13-3.43,3.13l-14.8-.08v4.12l23.11-.08c2.14,0,3.35,1.75,3.35,3.43s-1.07,3.13-3.35,3.13h-54.76ZM473.51,77.29h-3.05c-1.75.08-1.83.53-1.83,1.6,0,1.75.23,2.52,1.91,2.52h2.97v-4.12ZM484.64,78.36c-.08-.69-.54-1.07-1.68-1.07h-3.2v4.12c1.3,0,2.44-.07,3.13-.07,1.37-.08,1.75-.54,1.75-1.15v-1.83ZM518.43,74.47c-1.15,3.43-2.82,7.47-6.03,11.44,3.13,2.21,6.64,3.74,10.07,4.73,1.91.53,2.75,1.98,2.75,3.51,0,2.06-1.53,4.12-4.2,4.12-4.88,0-12.66-6.79-13.42-7.47-3.96,3.35-11.67,7.7-14.03,7.7-2.14,0-3.74-1.91-3.74-3.81,0-1.3.69-2.59,2.59-3.21,4.42-1.45,7.85-3.35,10.45-5.41-1.68-2.06-3.2-4.27-4.35-6.56l-.08.15c-.84,1.14-1.98,1.6-3.05,1.6-1.83,0-3.58-1.37-3.58-3.2,0-.84.3-1.68,1.07-2.59,2.75-3.35,5.18-7.85,6.94-13.5.53-1.75,1.91-2.44,3.35-2.44,1.83,0,3.81,1.3,3.81,3.35,0,.69-.46,2.06-1.83,5.11l15.86-.07c2.14,0,3.13,1.6,3.13,3.28s-.99,3.28-3.13,3.28h-2.59ZM503.41,74.4c.92,2.59,2.29,4.96,3.97,6.94,1.68-2.29,2.67-4.73,3.28-6.94h-7.24Z"/>
      <path class="st2" d="M556.52,92.55h-7.09c-1.15,14.72-3.2,24.56-10.22,32.57-1.14,1.3-2.52,1.83-3.74,1.83-2.36,0-4.34-1.75-4.34-3.89,0-.84.3-1.75,1.07-2.59,6.79-7.85,8.69-16.24,9.46-27.91l-5.95.08c-2.44,0-3.74-1.83-3.74-3.74s1.3-3.66,3.74-3.66h6.18v-2.82c0-4.04-.08-8.08-.15-11.21h-3.74c-2.44,0-3.74-1.91-3.74-3.74s1.3-3.74,3.74-3.74h29.97c2.44,0,3.66,1.83,3.66,3.74s-1.22,3.74-3.66,3.74h-3.28v14.03h5.34c2.36,0,3.59,1.83,3.59,3.66s-1.22,3.74-3.59,3.74l-5.34-.08v30.51c0,2.29-2.06,3.43-4.12,3.43s-4.04-1.15-4.04-3.43v-30.51ZM556.44,71.19h-6.41c-.08,3.66-.08,9-.23,14.11h6.71l-.08-14.11ZM570.09,126.95c-2.97,0-4.8-2.14-4.8-4.27,0-1.6.99-3.13,3.28-3.74,10.91-2.82,19.14-9.08,25.4-18.61,1.07-1.6,2.36-2.29,3.58-2.29,2.29,0,4.42,2.29,4.42,4.88,0,.84-.23,1.75-.76,2.59-10.91,17.08-28.98,21.43-31.12,21.43M573.52,105.06c-2.59,0-4.42-2.21-4.42-4.35,0-1.37.76-2.74,2.52-3.51,8.77-3.74,14.49-9.23,19.9-16.55,1.07-1.45,2.36-2.06,3.59-2.06,2.36,0,4.57,2.21,4.57,4.65,0,5.64-20.36,21.81-26.16,21.81M573.98,84.77c-2.59,0-4.35-2.14-4.35-4.27,0-1.37.76-2.75,2.52-3.58,8.85-4.05,13.65-8.62,18.38-14.42,1.07-1.3,2.29-1.83,3.51-1.83,2.36,0,4.42,2.14,4.42,4.58,0,.92-.31,1.83-.92,2.67-6.86,9-19.91,16.86-23.57,16.86"/>
      <path class="st2" d="M657.92,123.82c0,2.29-2.14,3.43-4.27,3.43s-4.27-1.14-4.27-3.51l.15-29.44c-2.59-2.21-5.18-4.57-7.63-7.24-3.89,15.25-11.44,29.51-23.8,38.82-1.3.99-2.59,1.37-3.81,1.37-2.59,0-4.65-1.91-4.65-4.04,0-1.3.77-2.67,2.44-3.81,8.24-5.42,14.03-13.19,17.77-21.36-1.98-1.07-3.66-1.91-6.03-2.59-1.83-.54-2.59-1.83-2.59-3.13,0-2.29,2.06-4.88,4.73-4.88,1.68,0,4.73,1.6,6.86,2.75,1.15-3.74,2.36-9.07,2.36-11.82,0-1.07-.46-1.68-1.6-1.68h-.23c-.46,0-3.43.15-6.1.23-3.2,8.24-7.4,15.79-11.29,21.28-1.3,1.83-2.97,2.59-4.42,2.59-2.29,0-4.19-1.76-4.19-3.89,0-.84.3-1.83,1.07-2.74,6.48-8.01,10.98-17.47,13.96-29.59.61-2.59,2.44-3.66,4.27-3.66,2.14,0,4.27,1.53,4.27,4.04,0,.15,0,.61-1.15,4.65,2.82-.08,5.72-.15,6.64-.15,4.12.15,7.55,2.14,7.55,6.79,0,.46,0,1.15-.61,4.19.23-.07.46-.07.69-.07.61,0,1.3.23,1.91.91,1.22,1.3,2.36,2.44,3.58,3.51l-.15-19.3v-.08c0-2.44,2.06-3.58,4.19-3.58s4.35,1.22,4.35,3.58v.08l-.23,25.47c5.11,3.2,10.37,5.49,16.24,8.01,1.91.76,2.75,2.29,2.75,3.81,0,2.36-1.91,4.73-4.73,4.73-2.59,0-10.22-4.5-14.26-7.17l.23,23.41v.08Z"/>
      <path class="st2" d="M705.79,123.9c0,2.44-2.14,3.66-4.27,3.66s-4.27-1.22-4.27-3.66v-.08l.31-21.97c-7.09,10.6-9.08,10.91-10.53,10.91-2.29,0-4.42-1.98-4.42-4.19,0-.92.46-1.98,1.45-2.9,3.96-3.58,9.99-10.83,13.58-17.62v-1.45l-8.09.23h-.15c-2.59,0-3.81-1.83-3.81-3.74s1.3-3.89,3.96-3.89h7.93l-.15-6.26c-.46.08-5.34.84-6.56.84-2.59,0-3.97-1.98-3.97-3.96,0-1.75,1.15-3.51,3.51-3.74,7.02-.68,11.67-1.68,18.07-4.12.53-.23.99-.3,1.45-.3,2.21,0,3.89,1.98,3.89,3.97,0,2.59-1.75,3.81-7.93,5.49l-.23,8.08h7.09c2.59,0,3.89,1.91,3.89,3.89,0,1.83-1.22,3.74-3.81,3.74h-.08l-7.24-.15v2.82h.38c1.3,0,10.68,4.35,10.68,8.62,0,2.29-1.91,4.35-3.96,4.35-.92,0-1.91-.46-2.75-1.53-1.07-1.37-2.74-2.9-4.35-4.12.08,11.36.38,27,.38,27v.08ZM733.93,124.2l.15-16.63-16.93,4.8c-.53.15-.99.23-1.37.23-2.36,0-3.74-1.91-3.74-3.81,0-1.53.99-3.2,2.97-3.74l19.14-5.41-.23-35.54c0-2.52,2.06-3.74,4.2-3.74s4.27,1.3,4.27,3.74l-.15,33.25,6.71-1.83c.46-.15.84-.15,1.22-.15,2.29,0,3.74,1.98,3.74,3.89,0,1.53-.92,2.97-2.82,3.51l-8.85,2.52.15,18.91c0,2.21-2.14,3.35-4.27,3.35s-4.2-1.07-4.2-3.28v-.08ZM724.17,95.45c-2.14-2.21-5.04-4.19-6.48-5.11-1.22-.76-1.75-1.75-1.75-2.75,0-1.75,1.75-3.43,4.19-3.43,1.91,0,10.83,3.81,10.83,8.39,0,2.29-1.83,4.27-3.89,4.27-.92,0-1.98-.38-2.9-1.37M724.78,79.28c-1.83-2.36-4.42-4.65-6.18-5.87-.99-.69-1.37-1.53-1.37-2.36,0-1.83,1.98-3.66,4.27-3.66,1.98,0,10.37,4.96,10.37,9.23,0,2.37-1.91,4.35-4.04,4.35-1.07,0-2.14-.46-3.05-1.68"/>
      <path class="st2" d="M799.68,83.4c0,1.68-.08,3.58-.15,4.42l-.23,2.29,16.09-.08c2.29,0,3.43,1.83,3.43,3.59s-1.07,3.43-3.2,3.43h-.23c-2.06-.15-8.92-.23-14.34-.31,3.51,5.11,9.08,8.77,14.57,10.68,2.14.76,3.13,2.44,3.13,4.12,0,2.14-1.53,4.19-4.19,4.19-3.28,0-13.27-5.57-18.53-14.8-6.48,12.96-19.3,14.8-19.68,14.8-2.29,0-3.74-1.98-3.74-3.97,0-1.6.91-3.13,2.97-3.66,8.24-2.21,12.2-6.63,14.11-11.36l-13.57.31h-.15c-2.29,0-3.43-1.68-3.43-3.36,0-1.83,1.22-3.66,3.58-3.66l15.18.08c.15-1.3.23-4.81.23-6.71h-6.86c-1.14,1.76-2.36,3.28-3.66,4.58-.84.84-1.91,1.22-2.9,1.22-2.06,0-4.04-1.52-4.04-3.28,0-.69.23-1.37.91-2.06,3.36-3.51,4.88-6.03,6.71-10.68.38-.99,1.15-1.6,2.06-1.83-2.97,0-5.8.07-8.16.07-4.12.08-5.03,1.45-5.11,4.81-.16,5.87-.23,11.74-.23,17.46,0,6.48.07,12.74.23,18.76.07,3.74,1.3,4.65,5.87,4.73,4.73.08,9.68.15,14.95.15,9,0,18.76-.15,29.36-.38h.15c2.52,0,3.81,1.98,3.81,4.04s-1.22,3.97-3.74,3.97c-9.46.23-18.3.3-27,.3-7.09,0-14.11-.08-21.35-.23-6.64-.15-9.92-3.51-10.15-9.38-.23-5.72-.3-12.43-.3-19.22,0-8.31.15-16.93.3-24.33.08-4.81,3.81-8.16,9.46-8.24,6.64-.15,14.72-.15,22.96-.15s16.63,0,23.72.15c2.67,0,3.97,1.91,3.97,3.81s-1.3,3.81-3.97,3.81c-10.68-.08-22.8-.15-32.64-.15,1.68.38,3.13,1.68,3.13,3.28,0,.46-.07.84-.3,1.3l-.23.61h22.12c2.29,0,3.43,1.76,3.43,3.43s-1.14,3.43-3.43,3.43h-10.91Z"/>
      <path class="st2" d="M895.54,109.17c.84,0,4.5.23,4.5,4.12,0,10.37-3.51,13.27-12.28,13.27-6.1,0-11.06-.61-11.06-9.3,0-2.52.08-13.58.23-18.76l-16.09.15c-1.83,0-2.97-1.07-3.43-2.36v2.06c-.23,5.95-4.27,11.14-9.69,11.14-4.04,0-5.11-2.14-5.34-2.75,0,6.03-.08,11.9-.08,17.62,0,2.52-2.06,3.74-4.12,3.74s-4.27-1.3-4.27-3.74c0-13.8.08-38.29.38-54.83.08-4.5,1.76-7.47,7.09-7.55h5.95c4.12,0,9.84,0,9.84,5.95,0,1.3-.3,3.74-4.8,13.04-.23.46-.31.99-.31,1.53,0,.99.31,1.98,1.07,2.82,2.29,2.59,3.66,5.26,4.12,9.08.23-1.6,1.37-2.97,3.51-2.97h34.02c2.29,0,3.43,1.83,3.43,3.66s-1.14,3.58-3.35,3.58h-.08l-9.76-.07c-.08,4.65-.3,13.04-.3,16.63,0,1.52,0,3.58,2.52,3.58,3.89,0,4.58-.99,4.58-5.26v-.84c0-2.44,1.83-3.51,3.74-3.51M845.21,101.55c.31,0,.61.08.92.15.23.08.54.15.76.15.38,0,2.97-.08,2.97-5.11,0-3.36-.84-5.8-2.82-8.47-1.6-2.14-2.29-3.89-2.29-5.64,0-1.45.38-2.82,1.14-4.42,1.6-3.58,3.13-7.93,3.13-8.54,0-1.14-1.75-1.14-2.74-1.14-2.82,0-3.81.38-3.81,2.36-.15,9.3-.15,21.05-.15,32.87.46-1.22,1.53-2.21,2.9-2.21M849.32,123.74c0-1.6,1.07-3.35,3.35-4.19,9.84-3.51,12.43-9.54,13.5-16.7.38-2.36,1.98-3.35,3.74-3.35,2.21,0,4.58,1.6,4.58,4.04,0,.23,0,.46-.08.68-3.2,18.99-18.38,23.49-20.82,23.49-2.74,0-4.27-1.91-4.27-3.97M889.82,78.59c0-2.82-.38-2.9-11.97-2.9-13.5,0-13.73.08-13.73,2.97v2.75c0,2.52-2.06,3.74-4.04,3.74s-3.96-1.22-3.96-3.74v-3.81c0-3.2.07-8.31,7.85-8.54l8.08-.23v-4.65c0-2.74,2.21-4.12,4.42-4.12s4.42,1.37,4.42,4.12v4.65c3.28,0,6.33.08,9.23.23,4.96.23,8.08,2.36,8.08,7.09v5.34c-.15,2.44-2.29,3.74-4.34,3.74s-4.04-1.22-4.04-3.66v-2.97ZM868.47,87.06c-2.44,0-3.66-1.76-3.66-3.51s1.22-3.43,3.66-3.43h17.39c2.29,0,3.43,1.76,3.43,3.43s-1.15,3.51-3.43,3.51h-17.39Z"/>
    </g>
  </g>
</svg>