<?xml version="1.0" encoding="UTF-8"?>
<svg id="_レイヤー_1" data-name="レイヤー_1" xmlns="http://www.w3.org/2000/svg" xmlns:xlink="http://www.w3.org/1999/xlink" version="1.1" viewBox="0 0 200 48">
  <!-- Generator: Adobe Illustrator 30.3.0, SVG Export Plug-In . SVG Version: 2.1.3 Build 182)  -->
  <defs>
    <style>
      .st0 {
        stroke: #7a997a;
        stroke-miterlimit: 10;
        stroke-width: .78px;
      }

      .st0, .st1 {
        fill: none;
      }

      .st2 {
        fill: #5b493d;
      }

      .st3 {
        fill: #7a997a;
      }

      .st4 {
        clip-path: url(#clippath-1);
      }

      .st5 {
        clip-path: url(#clippath-3);
      }

      .st6 {
        clip-path: url(#clippath-4);
      }

      .st7 {
        clip-path: url(#clippath-2);
      }

      .st8 {
        clip-path: url(#clippath-7);
      }

      .st9 {
        clip-path: url(#clippath-6);
      }

      .st10 {
        clip-path: url(#clippath-5);
      }

      .st11 {
        fill: url(#_名称未設定グラデーション_114);
      }

      .st12 {
        fill: url(#_名称未設定グラデーション_113);
      }

      .st13 {
        fill: url(#_名称未設定グラデーション_112);
      }

      .st14 {
        fill: url(#_名称未設定グラデーション_111);
      }

      .st15 {
        clip-path: url(#clippath);
      }

      .st16 {
        fill: url(#_名称未設定グラデーション_11);
      }
    </style>
    <clipPath id="clippath">
      <rect class="st1" x="-2.76" y="0" width="213.47" height="50.41"/>
    </clipPath>
    <clipPath id="clippath-1">
      <rect class="st1" x="-314.85" y="-79.54" width="535.75" height="378.85"/>
    </clipPath>
    <clipPath id="clippath-2">
      <path class="st1" d="M26.2,28.15s-.17,1.29-.84,2.07c-.67.78-1.93,2.06-2.44,2.38,2.33-.58,2.82-1.1,3.43-1.6.61-.5,1.44-1.83,1.5-2.85.06-1.02-.1-2.3-.65-2.88l-.99,2.88Z"/>
    </clipPath>
    <linearGradient id="_名称未設定グラデーション_11" data-name="名称未設定グラデーション 11" x1="-482.38" y1="430.47" x2="-481.93" y2="430.47" gradientTransform="translate(-6987.04 7883.36) rotate(90) scale(16.29 -16.29)" gradientUnits="userSpaceOnUse">
      <stop offset="0" stop-color="#b0cc6b"/>
      <stop offset="1" stop-color="#7a997a"/>
    </linearGradient>
    <clipPath id="clippath-3">
      <path class="st1" d="M24.77,27.72c-.52-.24-.57-1.15-.43-1.54.14-.38.5-.77,1.09-.63.58.14.58.97.56,1.3,0,.11-.02.25-.02.4-.23.27-.58.52-.92.52-.09,0-.19-.02-.28-.06M23.47,24.93c-.51.6-.96,1.62-.52,2.8.41,1.1,1.84,1.6,2.49.91.24-.26.4-.55.51-.82,0,0,0,.01,0,.01v-.04c.11-.25.16-.48.18-.63l.45-1.64s-.04-.8-.72-1.16c-.21-.11-.46-.16-.73-.16-.6,0-1.27.27-1.65.72"/>
    </clipPath>
    <linearGradient id="_名称未設定グラデーション_111" data-name="名称未設定グラデーション 11" x1="-465.83" y1="467.22" x2="-465.38" y2="467.22" gradientTransform="translate(-3910.99 -3922.57) rotate(-180) scale(8.45 -8.45)" xlink:href="#_名称未設定グラデーション_11"/>
    <clipPath id="clippath-4">
      <path class="st1" d="M25.69,22.61c.19.29.4,2.65.39,3.35-.01.51.09,1.54-.99,2.09-.75.38-1.51.2-2.16-.36,0,0,.42,1.36,1.94,1.43,1.54.07,2.64-1.19,2.69-3.1.05-1.91,0-3.63,0-3.63l-1.86.22Z"/>
    </clipPath>
    <linearGradient id="_名称未設定グラデーション_112" data-name="名称未設定グラデーション 11" x1="-516.62" y1="426.74" x2="-516.17" y2="426.74" gradientTransform="translate(5360.03 4434.3) scale(10.33 -10.33)" xlink:href="#_名称未設定グラデーション_11"/>
    <clipPath id="clippath-5">
      <path class="st1" d="M27.36,21.43c-1.75.18-4.94.15-6.71.96-1.77.81-3.01,1.98-3.46,2.63.76-.46,3.54-1.55,5.8-1.76,2.26-.2,3.18-.04,4.12-.21.94-.17,2.24-.29,3.59-1.33.86-.65,1.99-1.82,2.02-2.47-1.76,1.25-3.62,2-5.36,2.17"/>
    </clipPath>
    <linearGradient id="_名称未設定グラデーション_113" data-name="名称未設定グラデーション 11" x1="-500.57" y1="439.41" x2="-500.12" y2="439.41" gradientTransform="translate(17296.45 15190.19) scale(34.52 -34.52)" xlink:href="#_名称未設定グラデーション_11"/>
    <clipPath id="clippath-6">
      <path class="st1" d="M25.25,19.42c0,.71.58,1.29,1.3,1.29s1.28-.56,1.3-1.25v-.06c-.02-.7-.59-1.25-1.3-1.25s-1.3.58-1.3,1.29"/>
    </clipPath>
    <linearGradient id="_名称未設定グラデーション_114" data-name="名称未設定グラデーション 11" x1="-534.96" y1="410.99" x2="-534.51" y2="410.99" gradientTransform="translate(3114.85 2393.08) scale(5.78 -5.78)" xlink:href="#_名称未設定グラデーション_11"/>
    <clipPath id="clippath-7">
      <rect class="st1" x="-314.85" y="-79.54" width="535.75" height="378.85"/>
    </clipPath>
  </defs>
  <g class="st15">
    <g class="st4">
      <circle class="st0" cx="25.83" cy="24.44" r="8.79"/>
      <circle class="st0" cx="25.83" cy="24.44" r="13.79"/>
    </g>
    <g class="st7">
      <rect class="st16" x="22.91" y="25.27" width="4.99" height="7.33"/>
    </g>
    <g class="st5">
      <rect class="st14" x="22.51" y="24.21" width="4.07" height="5.12"/>
    </g>
    <g class="st6">
      <rect class="st13" x="22.93" y="22.39" width="4.68" height="6.8"/>
    </g>
    <g class="st10">
      <rect class="st12" x="17.19" y="19.26" width="15.53" height="5.77"/>
    </g>
    <g class="st9">
      <rect class="st11" x="25.25" y="18.13" width="2.6" height="2.57"/>
    </g>
    <g class="st8">
      <path class="st3" d="M15.89,26.95c.02.08.04.16.05.22l.1.5c.03.16-.06.25-.15.27-.09.02-.2-.03-.23-.17v-.02c-.04-.24-.05-.32-.09-.52-.01-.07-.03-.14-.05-.22-.1.02-.19.05-.28.06-.04,0-.1.03-.17.05-.11.11-.25.17-.39.2-.46.09-1.2-.17-1.26-.47-.02-.11.03-.22.13-.24.06-.01.14.01.24.1.13.12.3.21.48.25-.03-.05-.06-.11-.07-.17-.06-.28.17-.51.43-.56.38-.08.55.25.59.45v.03s.22-.05.22-.05c-.08-.26-.17-.52-.23-.68-.09-.24-.16-.37-.2-.47,0-.01,0-.03-.01-.04-.02-.11.05-.2.15-.22.09-.02.19.02.24.16.06.15.3.81.41,1.18h.03s.04-.01.04-.01c.17-.04.18-.06.28-.08.14-.03.22.05.24.15.01.05.03.21-.17.25-.08.02-.22.03-.3.04h-.02ZM14.77,26.92h.02c.12-.09.11-.18.1-.2-.02-.12-.11-.18-.22-.16-.12.02-.17.12-.15.22.04.17.21.15.24.14"/>
      <path class="st3" d="M14.93,30.39c-.31-.58-.29-1.13-.09-1.23.1-.05.23-.02.28.08.02.04.03.11,0,.18-.06.21-.01.44.1.66.1.19.25.38.42.56.02.02.04.05.05.07.06.12.01.23-.08.28-.08.04-.2.04-.3-.06-.16-.16-.29-.34-.39-.53M16.63,29.9s-.02-.04-.03-.06c-.05-.16-.11-.32-.2-.48-.07-.13-.16-.27-.25-.39-.01-.02-.03-.03-.03-.05-.06-.11-.01-.21.07-.26.09-.05.22-.03.32.1.09.13.19.29.28.45.23.43.3.68.11.78-.09.05-.21.02-.27-.09"/>
      <path class="st3" d="M18.42,31.65c.18.08.33.19.45.32.24.26.29.62.06.84-.3.28-.84.21-1.18-.16-.04-.05-.36-.43-.18-.59.08-.07.22-.09.29,0,.03.03.05.07.05.12.01.09.06.17.12.24.18.19.46.24.59.12.08-.08.1-.21-.03-.35-.17-.18-.55-.33-.98-.44-.31.97-.44,1.34-.56,1.45-.1.09-.23.08-.3,0-.06-.06-.08-.17,0-.29.15-.23.32-.71.5-1.26-.29-.09-.46-.18-.51-.24-.08-.08-.06-.22.01-.29.06-.05.14-.07.25,0,.12.07.24.13.37.17.11-.34.19-.46.22-.49.08-.08.2-.06.27.01.05.05.06.13.02.22-.05.11-.11.2-.15.31l-.03.07c.17.06.35.11.52.18l-.02-.02c-.05-.05-.07-.13-.02-.21.04-.07.05-.16.05-.25,0-.03.01-.05.03-.07.05-.05.17-.04.25.04.1.11.09.41-.03.52-.04.04-.1.05-.15.04l.05.02Z"/>
      <path class="st3" d="M20.2,33.8c-.4.37-.82.65-1.23.85-.09.04-.18.03-.24,0-.1-.06-.14-.17-.09-.27.03-.04.08-.09.15-.11.33-.11.68-.32,1.03-.62-.12-.04-.24-.08-.35-.14-.12-.07-.13-.18-.08-.26.05-.08.15-.13.26-.08.09.04.18.1.29.15l.14.07c.1-.11.24-.25.34-.4.07-.1.18-.1.26-.05.09.05.14.15.08.25-.01.02-.13.18-.32.37l.07.03s.03.02.05.02c.17.1.37.33.11.78-.55.96-1.12.66-1.21.61-.18-.1-.26-.26-.19-.37.05-.09.16-.13.26-.07.01,0,.03.02.04.03.03.03.07.06.1.08.27.16.56-.23.7-.47.09-.16.08-.27-.02-.32h-.02s-.12-.06-.12-.06ZM21.26,35.05c-.06-.03-.09-.09-.09-.18.02-.2.03-.48-.12-.72-.04-.06-.03-.11,0-.15.04-.07.14-.11.24-.06.19.11.39.81.27,1.02-.06.11-.2.13-.29.08"/>
      <path class="st3" d="M22.12,36.49c-.1-.02-.13-.1-.11-.17.01-.07.08-.13.17-.11l.38.08.07-.34c.02-.1.12-.13.2-.12.09.02.16.09.14.19l-.07.34.31.07.12-.6-.85-.17c-.1-.02-.14-.1-.12-.17.01-.07.08-.13.18-.11l2.01.41c.1.02.14.1.12.17-.01.07-.08.13-.18.11l-.82-.17-.03.16.65.13c.1.02.14.1.12.17-.01.07-.08.13-.18.11l-.64-.13-.04.18,1.01.2c.09.02.13.11.12.18-.01.07-.07.13-.17.11l-2.39-.49ZM23.11,35.32c-.02.08-.1.1-.18.09-.08-.02-.15-.08-.13-.16h0s.04-.19.04-.19c-.2.12-.5.26-.6.24-.09-.02-.14-.12-.13-.2.01-.05.05-.1.13-.11.17-.03.37-.09.55-.17-.05,0-.1-.02-.14-.03-.24-.06-.21-.22-.18-.37.02-.11.07-.26.31-.22l.22.04.02-.1-.46-.09c-.1-.02-.13-.09-.12-.16.01-.06.07-.12.17-.1h0s.46.1.46.1l.02-.09c.02-.1.11-.13.19-.11.08.02.15.08.13.18l-.02.09.46.08h0c.1.02.13.09.12.16-.01.07-.08.12-.18.1l-.46-.09-.02.1.21.04c.17.03.24.14.23.24,0,.04-.01.1-.02.15-.02.1-.06.24-.33.2-.06-.01-.14-.02-.21-.04v.05s0,0,0,0c.01,0,.03,0,.04,0,.04.01.37.12.34.29-.02.08-.09.14-.17.13-.03,0-.05-.02-.07-.05-.05-.07-.1-.11-.18-.15l-.03.14h0ZM22.98,34.46l-.13-.03c-.08-.01-.08,0-.09.05-.02.08-.01.11.06.13l.13.03.04-.18ZM23.46,34.6s-.01-.05-.06-.06l-.14-.03-.04.18c.06.01.11.02.14.02.06,0,.08,0,.09-.03l.02-.08ZM24.96,34.73c-.08.14-.19.3-.36.44.12.12.26.22.4.3.08.04.1.11.09.18-.02.09-.1.17-.22.14-.21-.04-.49-.41-.52-.45-.2.11-.58.23-.68.21-.09-.02-.15-.12-.13-.2.01-.06.05-.11.14-.12.21-.02.37-.08.5-.14-.05-.1-.1-.21-.13-.32h0s-.1.06-.15.05c-.08-.02-.14-.09-.13-.17,0-.04.03-.07.07-.1.15-.12.3-.3.42-.53.04-.07.1-.09.17-.08.08.02.15.09.14.18,0,.03-.04.09-.13.21l.69.14c.09.02.12.1.11.17-.01.07-.07.13-.17.11l-.11-.02ZM24.31,34.59c.02.12.06.24.11.34.09-.09.16-.18.2-.27l-.32-.06Z"/>
      <path class="st3" d="M26.68,35.47l-.31.04c.02.66-.02,1.1-.29,1.49-.04.06-.1.09-.16.1-.1.01-.2-.06-.21-.15,0-.04,0-.08.03-.12.26-.38.3-.76.28-1.28l-.26.03c-.11.01-.17-.06-.18-.15,0-.08.04-.17.15-.18l.27-.03v-.12c-.03-.18-.06-.36-.08-.5l-.17.02c-.11.01-.18-.07-.18-.15,0-.08.04-.17.15-.18l1.32-.15c.11-.01.17.06.18.15,0,.08-.04.17-.14.18l-.14.02.07.62.24-.03c.1-.01.17.06.18.14,0,.08-.04.17-.14.18l-.24.02.15,1.35c.01.1-.07.16-.17.17-.09,0-.18-.03-.2-.13l-.15-1.35ZM26.57,34.53l-.28.03c.01.16.04.4.06.63l.3-.03-.07-.62ZM27.42,35.04c-.11.01-.2-.07-.21-.17,0-.06.02-.13.09-.17.37-.22.56-.45.74-.73.04-.06.09-.09.15-.1.1-.01.21.07.22.18,0,.04,0,.08-.03.12-.26.43-.79.85-.96.86M27.46,36.92c-.13.01-.22-.07-.23-.16,0-.07.03-.14.13-.18.47-.18.8-.5,1.03-.95.04-.08.09-.11.15-.12.1-.01.21.08.22.19,0,.04,0,.08-.02.12-.4.81-1.17,1.09-1.27,1.11M27.5,35.94c-.11.01-.21-.08-.22-.17,0-.06.02-.13.09-.17.37-.21.59-.48.8-.83.04-.07.09-.1.15-.11.1-.01.21.07.23.18.03.25-.79,1.07-1.05,1.1"/>
      <path class="st3" d="M31.74,35.42c.04.09-.02.18-.11.22-.09.04-.19.03-.24-.06l-.55-1.19c-.15-.04-.3-.09-.44-.15.13.69.1,1.41-.23,2.01-.03.06-.08.1-.13.13-.1.05-.22.01-.26-.07-.02-.05-.02-.12.03-.2.23-.37.32-.8.31-1.2-.1,0-.18,0-.29,0-.08.01-.14-.02-.16-.08-.04-.09,0-.24.1-.29.07-.03.22-.02.33-.02-.02-.17-.08-.41-.13-.52-.02-.04-.05-.06-.1-.04h0s-.14.08-.24.13c.03.39,0,.78-.05,1.07-.02.1-.07.16-.13.19-.09.04-.2,0-.24-.08-.02-.03-.02-.08,0-.13.11-.45.11-.91,0-1.46-.02-.12.03-.19.1-.23.09-.04.2-.02.25.08,0,0,.01.02.04.21.11-.06.23-.11.26-.13.17-.07.34-.06.43.13,0,.02.02.05.05.18,0,0,.02-.01.03-.02.02-.01.06-.02.09,0,.07.03.14.05.21.07l-.37-.77h0c-.05-.1.02-.19.1-.23.09-.04.2-.03.24.06h0s.47,1.03.47,1.03c.27.03.52.03.81.02.09,0,.15.04.18.1.04.1.01.23-.1.28-.1.05-.5.01-.71-.02l.45.94h0Z"/>
      <path class="st3" d="M33.98,33.86c.07.08.04.18-.03.25-.07.07-.18.09-.25.01h0s-.66-.72-.66-.72c.09.56.04.63,0,.67-.07.07-.2.07-.27,0-.03-.03-.05-.08-.04-.14.02-.24,0-.66-.1-.99l-.04-.05-.25.25h0c-.08.08-.18.06-.24,0-.06-.06-.08-.17,0-.25l.26-.24-.2-.2s-.15.19-.19.23c-.08.08-.19.06-.25,0-.05-.06-.07-.15,0-.23.21-.24.33-.41.46-.69.01-.02.02-.04.04-.05.07-.07.19-.05.25,0,.08.08.06.18-.09.42l.24.27.23-.22c.08-.08.18-.06.24,0,.06.06.07.16,0,.24h0s-.24.22-.24.22l.09.09h.01c.04-.05.48-.2.61-.06.07.07.07.2,0,.26-.03.03-.08.04-.14.03-.08-.01-.18,0-.27,0,.35.36.84.86.84.86h0ZM33.23,31.84c-.13-.02-.29-.02-.38,0-.05,0-.09,0-.12-.03-.06-.06-.05-.18.03-.25.06-.06.49-.16.62-.02.07.08.07.2,0,.26-.03.03-.08.05-.15.04M34.9,33.01l-.5-.54-.4.67s-.03.04-.04.05c-.08.07-.18.05-.24,0-.05-.05-.07-.13-.02-.21l.45-.76-1.09-1.14c-.08-.08-.05-.18.02-.25.07-.07.18-.09.25,0l1.01,1.08.16-.26s.02-.03.03-.04c.07-.07.18-.05.24.01.05.05.06.12.02.2l-.21.35.58.61c.07.07.03.17-.04.24-.07.07-.17.09-.24.02h0ZM33.71,32.38c-.14,0-.29.02-.37.03-.06.01-.11,0-.14-.04-.05-.06-.05-.16.03-.24.06-.06.47-.21.61-.06.07.07.07.19,0,.26-.03.03-.08.05-.14.04"/>
      <path class="st3" d="M35.34,29.25c.07.04.14.08.17.1l.08.06.34-.63c.05-.09.14-.09.21-.06.07.04.11.12.07.2h0c-.05.09-.2.35-.32.56.27-.03.54-.17.73-.34.08-.07.16-.07.23-.03.08.05.13.15.07.25-.07.13-.5.4-.97.41.37.53.17,1.07.16,1.08-.05.09-.16.1-.23.06-.06-.03-.1-.1-.08-.19.09-.37,0-.62-.14-.79l-.28.54h0c-.05.09-.14.1-.2.07-.07-.04-.12-.13-.07-.22l.33-.59s-.18-.11-.26-.15l-.15.27c.04.08.08.16.1.24.01.05,0,.1-.01.14-.04.08-.15.13-.21.09-.03-.01-.05-.04-.06-.08-.07-.21-.13-.32-.27-.49-.03-.04-.04-.08-.03-.12-.06.12-.12.23-.17.32-.08.16-.05.23.08.3.23.13.45.26.68.38.25.14.5.27.74.39.15.08.21.05.31-.13.1-.18.21-.38.33-.58.19-.35.39-.74.61-1.15h0c.05-.1.16-.11.24-.07.08.04.13.13.08.23-.19.37-.38.72-.56,1.06-.15.28-.3.55-.47.83-.15.26-.35.31-.58.2-.23-.11-.49-.25-.76-.4-.32-.18-.66-.37-.94-.53-.19-.11-.24-.32-.12-.55.14-.26.31-.58.48-.9.18-.32.36-.65.51-.92.06-.1.16-.11.23-.07.07.04.12.13.06.24-.23.42-.49.89-.7,1.27.05-.06.13-.09.19-.05.02,0,.03.02.04.04l.02.02.47-.86c.05-.09.14-.1.21-.06.07.04.11.12.06.21l-.23.43Z"/>
      <path class="st3" d="M37.67,25.33s.05-.19.22-.16c.45.09.55.26.48.65-.05.27-.12.48-.5.41-.11-.02-.59-.12-.82-.17l-.13.71c-.01.08-.07.12-.13.13l.09.02c.26.06.45.28.41.52-.03.18-.14.21-.16.21.26.05.52.1.77.15.11.02.15.12.13.21-.02.09-.09.18-.2.16-.6-.12-1.67-.32-2.4-.47-.2-.04-.31-.14-.27-.37l.05-.26c.03-.18.08-.43.34-.38.06.01.16.04.53.32.02.01.04.02.06.03.04,0,.09,0,.13-.02.13-.08.26-.12.43-.1-.07-.02-.12-.09-.1-.18l.28-1.49c.02-.1.11-.13.19-.12.08.02.15.08.13.18h0s-.09.43-.09.43c.2.04.57.12.72.15.07.01.16.03.18-.08.03-.17,0-.21-.19-.24h-.04c-.11-.03-.14-.12-.12-.2M36.28,25.33c-.12-.02-.13,0-.23.5-.11.59-.11.6.02.63l.12.02c.11.02.15.12.13.21s-.09.16-.2.14l-.17-.03c-.14-.03-.36-.07-.31-.41l.06-.36-.2-.04c-.12-.02-.16-.13-.14-.23.02-.1.1-.18.22-.16l.2.04c.03-.14.06-.28.09-.4.05-.21.17-.33.38-.29l.23.04c.11.03.14.13.13.22-.02.09-.09.17-.19.15l-.13-.02ZM36.91,27.47s0-.03.01-.04c0,0,.01-.02.01-.03,0-.02.02-.13-.2-.17-.15-.03-.26-.01-.39.05-.11.05-.19.07-.27.05-.06-.01-.12-.04-.18-.09-.14-.1-.32-.2-.35-.21-.05,0-.06.07-.07.11-.02.12-.02.17.07.19.41.08.92.18,1.44.28-.05-.03-.08-.09-.07-.14M36.47,26.33c-.02.11-.11.15-.18.13-.07-.01-.14-.08-.12-.19l.15-.76c.02-.1.11-.14.18-.12.08.01.14.08.12.18l-.14.76ZM37.92,27.48c-.07-.01-.14-.08-.16-.18-.07-.46-.31-.62-.62-.73-.1-.04-.13-.11-.12-.19.02-.1.11-.19.22-.17,0,0,.02,0,.03,0,.8.3.87,1,.85,1.11-.02.12-.12.17-.21.15"/>
      <path class="st3" d="M16.68,19.82l-1.04-.69c.09.21.13.3.08.37-.04.06-.11.08-.16.04-.02-.01-.04-.04-.06-.08-.1-.34-.31-.71-.59-1-.05-.05-.04-.11-.02-.15.04-.06.12-.1.18-.06.05.03.19.22.3.39l1.45.94c.07.04.07.12.03.18-.03.05-.1.09-.17.04h0ZM15.96,18.6s0,.09-.01.13c-.03.05-.1.08-.14.05-.01,0-.02-.02-.03-.03-.02-.04-.31-.52-.35-.54-.02,0-.03,0-.04.01l-.07.11c-.03.05-.1.05-.14.03-.04-.03-.07-.08-.04-.14.05-.08.1-.16.13-.21.06-.09.15-.14.24-.08.04.02.07.06.34.47.03-.05.06-.09.06-.1.07-.11.17-.15.29-.07.06.04.42.33.61.62.21-.05.4-.24.61-.58.06-.09.12-.2.18-.31,0,0,0,0,0-.01.04-.07.12-.07.17-.04.05.03.08.11.04.19-.05.1-.1.19-.16.27-.23.37-.47.61-.74.68.07.17.12.39.08.45-.04.06-.12.08-.18.04-.03-.02-.05-.05-.05-.1,0-.14-.04-.27-.09-.39-.09,0-.19-.03-.29-.07,0,.02.01.03.02.05.01.04,0,.07-.01.09-.03.05-.1.07-.15.04-.03-.02-.05-.05-.06-.1-.02-.12-.08-.22-.13-.29-.02-.03-.02-.07,0-.1.03-.05.09-.08.14-.05.01,0,.03.03.04.04.03.03.07.05.1.07.07.05.14.08.21.1-.15-.18-.36-.34-.43-.38-.03-.02-.06,0-.07.02l-.07.11ZM17.11,18.17l.12.07c.06.04.07.11.03.16-.03.05-.09.08-.16.04l-.12-.08-.16.26c-.04.06-.1.06-.14.03-.04-.03-.07-.08-.03-.14l.16-.26-.12-.08-.11.18c-.04.06-.1.06-.14.04-.04-.02-.06-.08-.03-.14l.11-.18-.12-.07c-.04.06-.08.12-.12.18-.03.05-.09.05-.13.02-.04-.02-.06-.08-.03-.12h0c.04-.06.08-.12.11-.18l-.12-.07-.18.29c-.03.05-.1.05-.14.03-.04-.03-.07-.08-.04-.14l.18-.29-.12-.07-.12.2h0c-.04.06-.1.06-.14.04-.04-.03-.07-.08-.03-.14.04-.06.08-.13.12-.2l-.09-.05c-.06-.04-.07-.11-.04-.16.03-.05.09-.08.16-.04l.09.06.07-.11c.14-.21.23-.18.43-.06l.05-.07c.04-.06.1-.06.15-.03.05.03.07.09.04.15l-.05.07s.07.04.1.07c.12.09.11.21.03.33-.02.04-.04.08-.07.11l.12.07.16-.26c.04-.06.1-.06.13-.03.04.03.07.08.03.14l-.16.26.12.08.22-.35c.04-.06.1-.06.14-.03.04.03.07.08.03.14l-.22.35ZM16.17,17.36c-.09-.06-.12-.06-.16,0l-.06.09.12.07.1-.16ZM16.24,17.63l.12.08s.04-.06.05-.09c.02-.04.02-.08-.02-.11-.02,0-.03-.02-.05-.03l-.1.16Z"/>
      <path class="st3" d="M18.29,16.39c.28.09.55.19.7.27.12.06.14.16.1.23-.04.07-.13.1-.24.04-.14-.09-.4-.2-.67-.29-.14-.05-.27-.09-.4-.13-.04.14-.1.27-.17.4-.09.16-.35.05-.23-.15.06-.1.11-.21.15-.33-.03-.01-.05-.02-.08-.03-.05-.02-.1-.04-.16-.06-.05-.02-.1-.04-.15-.07-.14-.09-.04-.31.14-.23.09.04.17.09.26.12.02,0,.04.02.07.02.06-.2.12-.4.21-.58.13-.26.3-.48.55-.53.27-.05.46.14.5.41.05.38-.27.76-.6.83-.08.02-.15-.04-.16-.12-.01-.07.02-.15.13-.17.2-.03.4-.27.37-.5-.01-.12-.09-.2-.22-.19-.13.02-.24.15-.35.37-.08.18-.13.36-.18.55.14.04.29.09.43.14M17.59,15.73s-.08-.03-.12-.04c-.04,0-.07,0-.1,0-.13,0-.09-.24.08-.25.06,0,.18,0,.27.05.15.09.02.34-.14.24"/>
      <path class="st3" d="M20.22,14.12c.2-.13.42-.09.57.18.1.17.19.4.21.59.03.3-.14.54-.42.6-.22.05-.27-.22-.1-.26.16-.04.25-.12.24-.3,0-.15-.08-.33-.15-.46-.08-.15-.17-.19-.28-.12-.04.02-.07.05-.11.07.08.44.1.86.06,1.24-.03.23-.36.22-.29-.04.07-.28.07-.64,0-1.02l-.03.02c-.09.08-.18.14-.25.18-.17.09-.28-.13-.13-.23.07-.05.15-.09.23-.14l.12-.08c-.03-.12-.07-.28-.13-.43-.07-.17.19-.29.26-.11.04.09.08.25.11.38l.08-.05ZM21.42,14.19c-.13-.1-.34-.23-.57-.23-.15,0-.15-.24.05-.24.26,0,.52.09.68.23.15.13-.01.35-.16.24"/>
      <path class="st3" d="M22.65,14.57c-.34-.48-.32-1.33-.34-1.66-.02-.21.26-.21.27-.05,0,.23,0,.9.12,1.13.02.03.03.02.03,0,0-.01.02-.08.03-.1.05-.15.25-.06.21.06-.06.2-.07.33-.07.41,0,.08.05.15,0,.23-.05.08-.16.09-.24-.03M23.23,13.1c-.14.07-.28-.15-.1-.24.23-.12.51-.18.7-.18.2,0,.21.27.02.27-.2,0-.41.05-.62.16M23.33,14.21c-.14-.09-.02-.32.15-.23.18.1.49-.02.69-.11.21-.1.29.18.12.27-.27.14-.72.24-.96.07"/>
      <path class="st3" d="M25.35,12.42c-.14-.18.13-.32.24-.16.12.17.24.42.31.65.15-.1.31-.2.49-.3.19-.1.33.17.11.27-.28.14-.57.29-.79.48-.28.23-.29.43-.08.54.19.1.59.04.76-.02.23-.08.31.23.06.3-.22.06-.68.1-.95-.04-.39-.21-.37-.66.08-1.01.03-.02.05-.04.08-.06-.07-.22-.2-.49-.32-.65"/>
      <path class="st3" d="M28.15,14.01c-.07.39.35.47.56.21.14-.18.11-.38,0-.58-.1-.19.16-.27.25-.11.15.29.17.57,0,.81-.31.47-1.2.35-1.05-.37.02-.08.03-.16.06-.24-.09-.03-.17-.07-.2-.08-.2-.11-.06-.35.08-.26.06.03.12.07.2.09.04-.12.08-.23.12-.35-.1-.04-.18-.08-.21-.1-.19-.12-.01-.34.12-.24.05.04.12.07.18.1.01-.03.02-.07.03-.1.06-.17.09-.27.12-.39.06-.19.3-.08.27.08-.03.13-.08.22-.14.38-.01.03-.02.06-.03.09.02,0,.05,0,.07,0,.18,0,.17.25,0,.26-.06,0-.11,0-.17-.01-.04.12-.09.23-.12.34.05,0,.09,0,.13,0,.19,0,.2.25.03.26-.08,0-.17,0-.25-.01-.02.08-.04.15-.05.22"/>
      <path class="st3" d="M29.8,14.87c.05-.58.62-1.21.81-1.49.12-.17.33,0,.23.14-.14.18-.58.68-.64.94,0,.04,0,.03.03.02.01,0,.06-.05.08-.06.14-.08.23.11.12.18-.17.11-.27.21-.32.27-.05.06-.06.15-.15.17-.09.02-.18-.03-.16-.18M30.55,15.03c-.04-.16.19-.26.26-.08.07.19.39.3.6.36.22.06.1.33-.08.29-.3-.07-.7-.28-.78-.56M31.19,14.12c-.15-.03-.12-.29.08-.25.25.06.5.19.65.31.15.13-.01.34-.16.22-.16-.13-.34-.23-.58-.28"/>
      <path class="st3" d="M31.87,16.35s-.05-.05-.08-.08c-.06-.06-.04-.13,0-.19.04-.05.11-.07.16-.02t0,0s.09.09.14.13c.49.43.9.62,1.38.39.05-.02.09-.01.12.02.05.05.07.14.02.2-.01.01-.02.02-.04.03-.54.24-1.08.09-1.71-.47M32.24,15.77c-.07-.06-.07-.15-.02-.21.03-.03.08-.05.14-.02.17.06.41.09.6.05.04,0,.07,0,.1.03.05.05.06.15.01.2-.02.02-.04.03-.07.04-.28.05-.68,0-.77-.08M33.61,15.96l-.25.28-.11.13s0,0,0,0c-.1.11-.32.2-.55,0-.1-.09-.18-.19-.1-.28.04-.05.12-.07.17-.02,0,0,.01.01.02.02.03.04.06.08.09.1.06.06.13.06.21-.03l.34-.38-.71-.63c-.06-.05-.05-.12,0-.17.04-.04.11-.06.17,0l.24.21.29-.32c.06-.06.13-.05.19,0,.05.04.07.12.02.19l-.29.32.26.24.46-.51c.06-.07.14-.06.19-.01.05.05.07.13.01.19l-.13.14.44.39c.06.05.04.12,0,.16-.04.04-.11.07-.16.02l-.44-.39-.17.19.68.6c.05.05.04.12,0,.16-.04.05-.11.06-.16.02l-.68-.61ZM33.78,16.97c0-.16-.09-.4-.17-.55-.03-.05-.02-.1,0-.14.04-.04.12-.05.18,0,.05.04.25.42.26.65,0,.05-.01.08-.04.11-.05.06-.14.07-.2.02-.02-.02-.04-.05-.04-.09"/>
      <path class="st3" d="M34.46,17.69c.16-.34.54-.31.67-.06,0,.02.01.03.02.04.06-.03.12-.07.18-.1-.11-.13-.14-.22-.15-.27-.03-.16.21-.22.25-.05.01.07.05.13.11.2.1-.06.15-.12.2-.16.17-.14.32.13.17.24-.04.03-.1.07-.16.1.03.01.05.03.08.04.16.07.05.31-.14.22-.06-.03-.13-.08-.19-.13-.08.04-.15.09-.24.14-.03.02-.08.05-.13.08-.04.07-.1.12-.21.15-.09.02-.22.03-.33.05-.13.02-.24.08-.24.2,0,.14.17.39.34.51.18.14.33.08.52-.12.13-.13.33.06.18.22-.28.28-.55.36-.86.11-.19-.15-.41-.48-.42-.72,0-.2.11-.35.37-.42-.04-.08-.05-.18,0-.26M34.87,17.87s.05-.03.06-.05h0s.02-.06,0-.1c-.05-.11-.19-.09-.26,0-.04.06-.05.21.14.17.02,0,.03,0,.05-.01h0ZM35.84,18.81c.04-.1.07-.26,0-.38-.09-.14.13-.28.23-.1.1.17.12.44.04.6-.04.08-.12.09-.19.06-.06-.03-.11-.1-.07-.18"/>
      <path class="st2" d="M53.6,20.92c.38-.02.73-.03,1.04-.03h2.29c.72.02,1.07.47,1.07.93,0,.43-.32.84-.95.84h-.11c-1.07-.08-1.43-.09-2.38-.11-.31,0-.64,0-.99.02.02.46.03.9.03,1.3,0,.2.03.49.05.81.37.58.52,1.24.52,1.91,0,2.1-1.81,5.14-3.22,5.14-.52,0-.95-.34-.95-.78,0-.29.18-.63.66-.96.64-.46,1.19-1.14,1.56-1.89-.26.11-.53.15-.79.15-1.28,0-2.09-1.21-2.09-2.39,0-1.72,1.59-2.18,2.53-2.18h.12l-.03-.99c-1.24.12-2.46.29-3.22.41-1.11.17-1.77.37-2.23.44-.06.02-.14.02-.2.02-.52,0-.84-.41-.84-.85,0-.4.27-.81.9-.92.7-.12,3.84-.56,5.55-.73v-.15s.01-.17.01-.17c0-.78-.09-.84-.09-1.3,0-.63.43-.9.87-.9.24,0,.96.08.96.96,0,.38-.05.98-.08,1.34v.09ZM52.44,25.81v-.08c-.29-.63-.67-.63-.78-.63-.53,0-.88.34-.88.81,0,.53.4.84.82.84.78,0,.84-.81.84-.95"/>
      <path class="st2" d="M65.47,30.68c-2.94,0-5.09-1.21-5.09-2.24,0-.5.4-.95.9-.95.23,0,.49.09.75.35.7.7,1.71.98,2.84.98.98,0,2.04-.2,3.1-.49.14-.03.26-.05.37-.05.59,0,.93.44.93.92,0,.41-.26.87-.85,1.05-.95.29-1.95.43-2.93.43M67.12,22.91c-.09,0-.2,0-.31-.03-.73-.15-1.53-.23-2.33-.23-.69,0-1.4.06-2.07.18-.09.02-.18.03-.26.03-.56,0-.87-.4-.87-.81,0-.44.35-.93,1.08-1.04.7-.11,1.54-.17,2.36-.17,2.21,0,3.34.24,3.34,1.19,0,.46-.34.87-.95.87"/>
      <path class="st2" d="M77.88,21.37c.81-.32,1.65-.52,2.43-.52,1.6,0,2.94.95,2.94,2.4,0,1.85-1.86,3.4-4.13,3.4-.29,0-2.52-.14-2.52-1.22,0-.47.38-.98.88-.98.18,0,.37.06.56.2.32.23.73.34,1.17.34,1.17,0,2.18-.79,2.18-1.57,0-.5-.4-.98-1.24-.98-1.1,0-2.76.81-4.45,1.86,2.23,4,3.04,5.55,3.04,6.27,0,.63-.44,1.01-.9,1.01-.4,0-.79-.27-.96-.9-.31-1.21-1.36-3.25-2.61-5.52-1.19.66-2.01.95-2.35.95-.52,0-.9-.46-.9-.91,0-.35.21-.69.76-.85.61-.18,1.16-.41,1.69-.67-.79-1.42-.93-2.04-.93-2.24,0-.5.43-.85.87-.85.31,0,.63.18.81.61.2.49.32.95.56,1.42l.14.29c.72-.4,1.45-.82,2.18-1.17h-.12c-.34,0-.64-.17-.76-.59-.11-.35-.38-.66-.66-.95-.09-.11-.14-.21-.14-.34,0-.34.41-.69.9-.69.69,0,1.63.95,1.63,1.68,0,.27-.14.49-.32.64l.23-.09Z"/>
      <path class="st2" d="M89.9,23.98c-.75,2.33-1.72,4.38-2.91,6.06-.26.37-.61.52-.93.52-.5,0-.95-.35-.95-.84,0-.23.11-.5.35-.78,1.04-1.16,1.94-2.76,2.62-4.7-.55.11-1.13.23-1.68.23-.61,0-.9-.4-.9-.81s.29-.82.84-.89c.46-.05.93-.03,1.48-.08l.7-.06c.17-.64.37-1.49.44-2.3.06-.53.49-.79.9-.79.44,0,.87.27.87.79,0,.11-.12.98-.41,2.14l.34-.03c.09-.01.17-.01.24-.01.9,0,2.17.47,2.17,2.79,0,4.99-2.88,5.09-3.37,5.09-.95,0-1.59-.43-1.59-1.02,0-.44.34-.87.84-.87.06,0,.14.02.21.03.2.05.38.08.55.08,1.42,0,1.68-2.14,1.68-3.39,0-.84-.29-1.22-.81-1.22h-.12l-.56.06ZM96.85,26.5c-.29,0-.58-.15-.73-.5-.37-.82-.96-1.94-2.06-2.53-.26-.14-.37-.35-.37-.56,0-.37.32-.75.79-.75.96,0,3.33,2.27,3.33,3.4,0,.55-.49.95-.96.95"/>
      <path class="st2" d="M103.87,25.23c0,.37-.37.55-.73.56-.37-.02-.73-.2-.73-.56h0s.02-.88.02-.88c-.76.7-1.95,1.6-2.43,1.6-.41,0-.73-.38-.73-.76,0-.23.14-.47.46-.6.73-.27,1.56-.72,2.27-1.25-.23,0-.44-.02-.63-.02-1.13-.03-1.14-.79-1.14-1.46,0-.5.09-1.21,1.19-1.24h.99v-.47h-2.1c-.44,0-.66-.29-.66-.59s.21-.59.64-.59h.02l2.1.05v-.41c0-.46.37-.67.73-.67s.73.21.73.67v.41l2.09-.05h.02c.46,0,.67.29.67.58,0,.31-.24.61-.69.61h-2.09v.47h.95c.78,0,1.21.41,1.24.84.01.18.03.46.03.7,0,.46-.06,1.13-1.28,1.16-.27,0-.63.02-.98.02l.02.23v.02c.06-.02.12-.02.18-.02.18.02,1.74.2,1.74.96,0,.35-.29.7-.63.7-.12,0-.24-.05-.37-.15-.27-.24-.53-.38-.91-.52v.66s.01.01.01.01ZM100.56,31.27c-.44,0-.66-.32-.66-.66s.21-.66.66-.66h1.75v-1.56c0-.47.4-.7.79-.7s.79.23.79.7l.02,1.56,1.43.02v-2.76l-3.9.02c-.46,0-.69-.32-.69-.64s.23-.64.69-.64h9.21c.46,0,.69.32.69.66,0,.3-.23.63-.69.63l-3.77-.02v.72l2.96-.02c.46,0,.69.32.69.63s-.23.63-.69.63l-2.96-.02v.82l4.62-.02c.43,0,.67.35.67.69s-.21.63-.67.63h-10.95ZM102.52,21.56h-.61c-.35.02-.37.11-.37.32,0,.35.05.5.38.5h.59v-.82ZM104.74,21.77c-.02-.14-.11-.21-.34-.21h-.64v.82c.26,0,.49-.01.63-.01.27-.02.35-.11.35-.23v-.37ZM111.5,20.99c-.23.69-.56,1.49-1.21,2.29.63.44,1.33.75,2.01.95.38.11.55.4.55.7,0,.41-.31.82-.84.82-.98,0-2.53-1.36-2.68-1.49-.79.67-2.33,1.54-2.81,1.54-.43,0-.75-.38-.75-.76,0-.26.14-.52.52-.64.88-.29,1.57-.67,2.09-1.08-.34-.41-.64-.85-.87-1.31l-.02.03c-.17.23-.4.32-.61.32-.37,0-.72-.27-.72-.64,0-.17.06-.34.21-.52.55-.67,1.04-1.57,1.39-2.7.11-.35.38-.49.67-.49.37,0,.76.26.76.67,0,.14-.09.41-.37,1.02h3.17c.43-.01.63.31.63.64s-.2.66-.63.66h-.52ZM108.5,20.98c.18.52.46.99.79,1.39.34-.46.53-.95.66-1.39h-1.45Z"/>
      <path class="st2" d="M119.12,24.61h-1.42c-.23,2.94-.64,4.91-2.04,6.51-.23.26-.5.37-.75.37-.47,0-.87-.35-.87-.78,0-.17.06-.35.21-.52,1.36-1.57,1.74-3.25,1.89-5.58l-1.19.02c-.49,0-.75-.37-.75-.75s.26-.73.75-.73h1.24v-.56c0-.81-.02-1.62-.03-2.24h-.75c-.49,0-.75-.38-.75-.75s.26-.75.75-.75h5.99c.49,0,.73.37.73.75s-.24.75-.73.75h-.66v2.81h1.07c.47,0,.72.37.72.73s-.24.75-.72.75l-1.07-.02v6.1c0,.46-.41.69-.82.69s-.81-.23-.81-.69v-6.1ZM119.1,20.34h-1.28c-.02.73-.02,1.8-.05,2.82h1.34l-.02-2.82ZM121.83,31.49c-.59,0-.96-.43-.96-.85,0-.32.2-.63.66-.75,2.18-.56,3.83-1.82,5.08-3.72.21-.32.47-.46.72-.46.46,0,.88.46.88.98,0,.17-.05.35-.15.52-2.18,3.42-5.8,4.29-6.22,4.29M122.52,27.11c-.52,0-.88-.44-.88-.87,0-.27.15-.55.5-.7,1.75-.75,2.9-1.85,3.98-3.31.21-.29.47-.41.72-.41.47,0,.91.44.91.93,0,1.13-4.07,4.36-5.23,4.36M122.61,23.05c-.52,0-.87-.43-.87-.85,0-.27.15-.55.5-.72,1.77-.81,2.73-1.72,3.68-2.88.21-.26.46-.37.7-.37.47,0,.88.43.88.92,0,.18-.06.37-.18.53-1.37,1.8-3.98,3.37-4.71,3.37"/>
      <path class="st2" d="M139.4,30.86c0,.46-.43.69-.85.69s-.85-.23-.85-.7l.03-5.89c-.52-.44-1.04-.91-1.53-1.45-.78,3.05-2.29,5.9-4.76,7.76-.26.2-.52.27-.76.27-.52,0-.93-.38-.93-.81,0-.26.15-.53.49-.76,1.65-1.08,2.81-2.64,3.55-4.27-.4-.21-.73-.38-1.21-.52-.37-.11-.52-.37-.52-.63,0-.46.41-.98.95-.98.34,0,.95.32,1.37.55.23-.75.47-1.81.47-2.36,0-.21-.09-.34-.32-.34h-.05c-.09,0-.69.03-1.22.05-.64,1.65-1.48,3.16-2.26,4.26-.26.37-.59.52-.88.52-.46,0-.84-.35-.84-.78,0-.17.06-.37.21-.55,1.3-1.6,2.2-3.49,2.79-5.92.12-.52.49-.73.85-.73.43,0,.85.31.85.81,0,.03,0,.12-.23.93.56-.02,1.14-.03,1.33-.03.82.03,1.51.43,1.51,1.36,0,.09,0,.23-.12.84.05-.01.09-.01.14-.01.12,0,.26.05.38.18.24.26.47.49.72.7l-.03-3.86v-.02c0-.49.41-.72.84-.72s.87.24.87.72v.02l-.05,5.09c1.02.64,2.07,1.1,3.25,1.6.38.15.55.46.55.76,0,.47-.38.95-.95.95-.52,0-2.04-.9-2.85-1.43l.05,4.68v.02Z"/>
      <path class="st2" d="M148.97,30.88c0,.49-.43.73-.85.73s-.85-.24-.85-.73v-.02l.06-4.39c-1.42,2.12-1.82,2.18-2.11,2.18-.46,0-.88-.4-.88-.84,0-.18.09-.4.29-.58.79-.72,2-2.17,2.72-3.52v-.29l-1.62.05h-.03c-.52,0-.76-.37-.76-.75s.26-.78.79-.78h1.59l-.03-1.25c-.09.02-1.07.17-1.31.17-.52,0-.79-.4-.79-.79,0-.35.23-.7.7-.75,1.4-.14,2.33-.34,3.61-.82.11-.05.2-.06.29-.06.44,0,.78.4.78.79,0,.52-.35.76-1.59,1.1l-.05,1.62h1.42c.52,0,.78.38.78.78,0,.37-.24.75-.76.75h-.02l-1.45-.03v.56h.08c.26,0,2.14.87,2.14,1.72,0,.46-.38.87-.79.87-.18,0-.38-.09-.55-.31-.21-.27-.55-.58-.87-.82.02,2.27.08,5.4.08,5.4v.02ZM154.6,30.94l.03-3.33-3.39.96c-.11.03-.2.05-.27.05-.47,0-.75-.38-.75-.76,0-.31.2-.64.59-.75l3.83-1.08-.05-7.11c0-.5.41-.75.84-.75s.85.26.85.75l-.03,6.65,1.34-.37c.09-.03.17-.03.24-.03.46,0,.75.4.75.78,0,.31-.18.59-.56.7l-1.77.5.03,3.78c0,.44-.43.67-.85.67s-.84-.21-.84-.66v-.02ZM152.65,25.19c-.43-.44-1.01-.84-1.3-1.02-.24-.15-.35-.35-.35-.55,0-.35.35-.69.84-.69.38,0,2.17.76,2.17,1.68,0,.46-.37.85-.78.85-.18,0-.4-.08-.58-.27M152.77,21.95c-.37-.47-.88-.93-1.24-1.17-.2-.14-.27-.31-.27-.47,0-.37.4-.73.85-.73.4,0,2.07.99,2.07,1.85,0,.47-.38.87-.81.87-.21,0-.43-.09-.61-.34"/>
      <path class="st2" d="M167.75,22.78c0,.34-.02.72-.03.88l-.05.46,3.22-.02c.46,0,.69.37.69.72s-.21.69-.64.69h-.05c-.41-.03-1.78-.05-2.87-.06.7,1.02,1.82,1.75,2.91,2.14.43.15.63.49.63.82,0,.43-.31.84-.84.84-.66,0-2.65-1.11-3.71-2.96-1.3,2.59-3.86,2.96-3.94,2.96-.46,0-.75-.4-.75-.79,0-.32.18-.63.59-.73,1.65-.44,2.44-1.33,2.82-2.27l-2.71.06h-.03c-.46,0-.69-.34-.69-.67,0-.37.24-.73.72-.73l3.04.02c.03-.26.05-.96.05-1.34h-1.37c-.23.35-.47.66-.73.92-.17.17-.38.24-.58.24-.41,0-.81-.3-.81-.66,0-.14.05-.27.18-.41.67-.7.98-1.21,1.34-2.14.08-.2.23-.32.41-.37-.59,0-1.16.01-1.63.01-.82.02-1.01.29-1.02.96-.03,1.17-.05,2.35-.05,3.49,0,1.3.01,2.55.05,3.75.01.75.26.93,1.17.95.95.02,1.94.03,2.99.03,1.8,0,3.75-.03,5.87-.08h.03c.5,0,.76.4.76.81s-.24.79-.75.79c-1.89.05-3.66.06-5.4.06-1.42,0-2.82-.02-4.27-.05-1.33-.03-1.98-.7-2.03-1.88-.05-1.14-.06-2.49-.06-3.84,0-1.66.03-3.39.06-4.87.02-.96.76-1.63,1.89-1.65,1.33-.03,2.94-.03,4.59-.03s3.33,0,4.74.03c.53,0,.79.38.79.76s-.26.76-.79.76c-2.14-.02-4.56-.03-6.53-.03.34.08.63.34.63.66,0,.09-.01.17-.06.26l-.05.12h4.42c.46,0,.69.35.69.69s-.23.69-.69.69h-2.18Z"/>
      <path class="st2" d="M186.92,27.93c.17,0,.9.05.9.82,0,2.07-.7,2.65-2.46,2.65-1.22,0-2.21-.12-2.21-1.86,0-.5.02-2.72.05-3.75l-3.22.03c-.37,0-.59-.21-.69-.47v.41c-.05,1.19-.85,2.23-1.94,2.23-.81,0-1.02-.43-1.07-.55,0,1.21-.02,2.38-.02,3.52,0,.5-.41.75-.82.75s-.85-.26-.85-.75c0-2.76.02-7.66.08-10.97.02-.9.35-1.49,1.42-1.51h1.19c.82,0,1.97,0,1.97,1.19,0,.26-.06.75-.96,2.61-.05.09-.06.2-.06.31,0,.2.06.4.21.56.46.52.73,1.05.82,1.82.05-.32.27-.59.7-.59h6.8c.46,0,.69.37.69.73s-.23.72-.67.72h-1.97c-.02.92-.06,2.59-.06,3.31,0,.3,0,.72.5.72.78,0,.92-.2.92-1.05v-.17c0-.49.37-.7.75-.7M176.86,26.41c.06,0,.12.02.18.03.05.02.11.03.15.03.08,0,.59-.02.59-1.02,0-.67-.17-1.16-.56-1.69-.32-.43-.46-.78-.46-1.13,0-.29.08-.56.23-.88.32-.72.63-1.59.63-1.71,0-.23-.35-.23-.55-.23-.56,0-.76.08-.76.47-.03,1.86-.03,4.21-.03,6.57.09-.24.31-.44.58-.44M177.68,30.85c0-.32.21-.67.67-.84,1.97-.7,2.49-1.91,2.7-3.34.08-.47.4-.67.75-.67.44,0,.92.32.92.81,0,.05,0,.09-.02.14-.64,3.8-3.68,4.7-4.16,4.7-.55,0-.85-.38-.85-.79M185.78,21.82c0-.56-.08-.58-2.39-.58-2.7,0-2.75.02-2.75.59v.55c0,.5-.41.75-.81.75s-.79-.24-.79-.75v-.76c0-.64.01-1.66,1.57-1.71l1.62-.05v-.93c0-.55.44-.82.88-.82s.88.27.88.82v.93c.66,0,1.27.02,1.85.05.99.05,1.62.47,1.62,1.42v1.07c-.03.49-.46.75-.87.75s-.81-.24-.81-.73v-.59ZM181.51,23.51c-.49,0-.73-.35-.73-.7s.24-.69.73-.69h3.48c.46,0,.69.35.69.69s-.23.7-.69.7h-3.48Z"/>
    </g>
  </g>
</svg>